<mxfile host="app.diagrams.net" agent="Mozilla/5.0 (Macintosh; Intel Mac OS X 10_15_7) AppleWebKit/537.36 (KHTML, like Gecko) Chrome/135.0.0.0 Safari/537.36" version="26.2.14">
  <diagram name="Page-1" id="vvBicnVi6MKxqLp9s39S">
    <mxGraphModel dx="2514" dy="1322" grid="1" gridSize="10" guides="1" tooltips="1" connect="1" arrows="1" fold="1" page="1" pageScale="1" pageWidth="827" pageHeight="1169" math="0" shadow="0">
      <root>
        <mxCell id="0" />
        <mxCell id="1" parent="0" />
        <mxCell id="huza8Dq0BffoJNn7cIbv-1" value="Tables" style="whiteSpace=wrap;strokeWidth=2;" vertex="1" parent="1">
          <mxGeometry x="20" y="899" width="859" height="104" as="geometry" />
        </mxCell>
        <mxCell id="huza8Dq0BffoJNn7cIbv-2" value="User Signup" style="whiteSpace=wrap;strokeWidth=2;" vertex="1" parent="1">
          <mxGeometry x="381" y="20" width="143" height="54" as="geometry" />
        </mxCell>
        <mxCell id="huza8Dq0BffoJNn7cIbv-3" value="User Table populated" style="whiteSpace=wrap;strokeWidth=2;" vertex="1" parent="1">
          <mxGeometry x="347" y="124" width="211" height="54" as="geometry" />
        </mxCell>
        <mxCell id="huza8Dq0BffoJNn7cIbv-4" value="Onboarding UI" style="whiteSpace=wrap;strokeWidth=2;" vertex="1" parent="1">
          <mxGeometry x="466" y="228" width="162" height="54" as="geometry" />
        </mxCell>
        <mxCell id="huza8Dq0BffoJNn7cIbv-5" value="Team Page" style="whiteSpace=wrap;strokeWidth=2;" vertex="1" parent="1">
          <mxGeometry x="479" y="332" width="136" height="54" as="geometry" />
        </mxCell>
        <mxCell id="huza8Dq0BffoJNn7cIbv-6" value="Add Team Name and Description" style="whiteSpace=wrap;strokeWidth=2;" vertex="1" parent="1">
          <mxGeometry x="262" y="459" width="260" height="78" as="geometry" />
        </mxCell>
        <mxCell id="huza8Dq0BffoJNn7cIbv-7" value="Insert into Team Table" style="whiteSpace=wrap;strokeWidth=2;" vertex="1" parent="1">
          <mxGeometry x="282" y="587" width="219" height="54" as="geometry" />
        </mxCell>
        <mxCell id="huza8Dq0BffoJNn7cIbv-8" value="Map User to Team" style="whiteSpace=wrap;strokeWidth=2;" vertex="1" parent="1">
          <mxGeometry x="403" y="691" width="187" height="54" as="geometry" />
        </mxCell>
        <mxCell id="huza8Dq0BffoJNn7cIbv-9" value="Insert into User_Team Table" style="whiteSpace=wrap;strokeWidth=2;" vertex="1" parent="1">
          <mxGeometry x="367" y="795" width="259" height="54" as="geometry" />
        </mxCell>
        <mxCell id="huza8Dq0BffoJNn7cIbv-10" value="Join Team Button" style="whiteSpace=wrap;strokeWidth=2;" vertex="1" parent="1">
          <mxGeometry x="714" y="587" width="184" height="54" as="geometry" />
        </mxCell>
        <mxCell id="huza8Dq0BffoJNn7cIbv-11" value="Select Team ID" style="whiteSpace=wrap;strokeWidth=2;" vertex="1" parent="1">
          <mxGeometry x="724" y="691" width="165" height="54" as="geometry" />
        </mxCell>
        <mxCell id="huza8Dq0BffoJNn7cIbv-12" value="Insert into User_Team Table" style="whiteSpace=wrap;strokeWidth=2;" vertex="1" parent="1">
          <mxGeometry x="677" y="795" width="259" height="54" as="geometry" />
        </mxCell>
        <mxCell id="huza8Dq0BffoJNn7cIbv-116" style="edgeStyle=orthogonalEdgeStyle;rounded=0;orthogonalLoop=1;jettySize=auto;html=1;exitX=0.5;exitY=1;exitDx=0;exitDy=0;entryX=0.5;entryY=0;entryDx=0;entryDy=0;" edge="1" parent="1" source="huza8Dq0BffoJNn7cIbv-13">
          <mxGeometry relative="1" as="geometry">
            <mxPoint x="286" y="1190" as="targetPoint" />
          </mxGeometry>
        </mxCell>
        <mxCell id="huza8Dq0BffoJNn7cIbv-13" value="User Table" style="whiteSpace=wrap;strokeWidth=2;" vertex="1" parent="1">
          <mxGeometry x="55" y="924" width="134" height="54" as="geometry" />
        </mxCell>
        <mxCell id="huza8Dq0BffoJNn7cIbv-117" style="edgeStyle=orthogonalEdgeStyle;rounded=0;orthogonalLoop=1;jettySize=auto;html=1;exitX=0.5;exitY=1;exitDx=0;exitDy=0;entryX=0.5;entryY=0;entryDx=0;entryDy=0;" edge="1" parent="1" source="huza8Dq0BffoJNn7cIbv-14">
          <mxGeometry relative="1" as="geometry">
            <mxPoint x="670" y="1201" as="targetPoint" />
          </mxGeometry>
        </mxCell>
        <mxCell id="huza8Dq0BffoJNn7cIbv-14" value="Team Table" style="whiteSpace=wrap;strokeWidth=2;" vertex="1" parent="1">
          <mxGeometry x="239" y="924" width="140" height="54" as="geometry" />
        </mxCell>
        <mxCell id="huza8Dq0BffoJNn7cIbv-118" style="edgeStyle=orthogonalEdgeStyle;rounded=0;orthogonalLoop=1;jettySize=auto;html=1;exitX=1;exitY=0.5;exitDx=0;exitDy=0;entryX=1;entryY=0.5;entryDx=0;entryDy=0;" edge="1" parent="1" source="huza8Dq0BffoJNn7cIbv-15">
          <mxGeometry relative="1" as="geometry">
            <mxPoint x="659" y="1526" as="targetPoint" />
            <Array as="points">
              <mxPoint x="741" y="950" />
              <mxPoint x="940" y="950" />
              <mxPoint x="940" y="1526" />
            </Array>
          </mxGeometry>
        </mxCell>
        <mxCell id="huza8Dq0BffoJNn7cIbv-15" value="User_Team Table" style="whiteSpace=wrap;strokeWidth=2;" vertex="1" parent="1">
          <mxGeometry x="561" y="924" width="180" height="54" as="geometry" />
        </mxCell>
        <mxCell id="huza8Dq0BffoJNn7cIbv-16" value="" style="curved=1;startArrow=none;endArrow=block;exitX=0.5;exitY=1;entryX=0.5;entryY=0;rounded=0;" edge="1" parent="1" source="huza8Dq0BffoJNn7cIbv-2" target="huza8Dq0BffoJNn7cIbv-3">
          <mxGeometry relative="1" as="geometry">
            <Array as="points" />
          </mxGeometry>
        </mxCell>
        <mxCell id="huza8Dq0BffoJNn7cIbv-17" value="" style="curved=1;startArrow=none;endArrow=block;exitX=0.73;exitY=1;entryX=0.5;entryY=0;rounded=0;" edge="1" parent="1" source="huza8Dq0BffoJNn7cIbv-3" target="huza8Dq0BffoJNn7cIbv-4">
          <mxGeometry relative="1" as="geometry">
            <Array as="points">
              <mxPoint x="547" y="203" />
            </Array>
          </mxGeometry>
        </mxCell>
        <mxCell id="huza8Dq0BffoJNn7cIbv-18" value="" style="curved=1;startArrow=none;endArrow=block;exitX=0.5;exitY=1;entryX=0.5;entryY=0;rounded=0;" edge="1" parent="1" source="huza8Dq0BffoJNn7cIbv-4" target="huza8Dq0BffoJNn7cIbv-5">
          <mxGeometry relative="1" as="geometry">
            <Array as="points" />
          </mxGeometry>
        </mxCell>
        <mxCell id="huza8Dq0BffoJNn7cIbv-19" value="Create Team" style="curved=1;startArrow=none;endArrow=block;exitX=0.01;exitY=1;entryX=0.5;entryY=-0.01;rounded=0;" edge="1" parent="1" source="huza8Dq0BffoJNn7cIbv-5" target="huza8Dq0BffoJNn7cIbv-6">
          <mxGeometry relative="1" as="geometry">
            <Array as="points">
              <mxPoint x="392" y="422" />
            </Array>
          </mxGeometry>
        </mxCell>
        <mxCell id="huza8Dq0BffoJNn7cIbv-20" value="" style="curved=1;startArrow=none;endArrow=block;exitX=0.5;exitY=0.99;entryX=0.5;entryY=-0.01;rounded=0;" edge="1" parent="1" source="huza8Dq0BffoJNn7cIbv-6" target="huza8Dq0BffoJNn7cIbv-7">
          <mxGeometry relative="1" as="geometry">
            <Array as="points" />
          </mxGeometry>
        </mxCell>
        <mxCell id="huza8Dq0BffoJNn7cIbv-21" value="" style="curved=1;startArrow=none;endArrow=block;exitX=0.75;exitY=0.99;entryX=0.5;entryY=-0.01;rounded=0;" edge="1" parent="1" source="huza8Dq0BffoJNn7cIbv-7" target="huza8Dq0BffoJNn7cIbv-8">
          <mxGeometry relative="1" as="geometry">
            <Array as="points">
              <mxPoint x="497" y="666" />
            </Array>
          </mxGeometry>
        </mxCell>
        <mxCell id="huza8Dq0BffoJNn7cIbv-22" value="" style="curved=1;startArrow=none;endArrow=block;exitX=0.5;exitY=0.99;entryX=0.5;entryY=-0.01;rounded=0;" edge="1" parent="1" source="huza8Dq0BffoJNn7cIbv-8" target="huza8Dq0BffoJNn7cIbv-9">
          <mxGeometry relative="1" as="geometry">
            <Array as="points" />
          </mxGeometry>
        </mxCell>
        <mxCell id="huza8Dq0BffoJNn7cIbv-23" value="Join Team" style="curved=1;startArrow=none;endArrow=block;exitX=1;exitY=0.81;entryX=0.5;entryY=-0.01;rounded=0;" edge="1" parent="1" source="huza8Dq0BffoJNn7cIbv-5" target="huza8Dq0BffoJNn7cIbv-10">
          <mxGeometry relative="1" as="geometry">
            <Array as="points">
              <mxPoint x="806" y="422" />
            </Array>
          </mxGeometry>
        </mxCell>
        <mxCell id="huza8Dq0BffoJNn7cIbv-24" value="" style="curved=1;startArrow=none;endArrow=block;exitX=0.5;exitY=0.99;entryX=0.5;entryY=-0.01;rounded=0;" edge="1" parent="1" source="huza8Dq0BffoJNn7cIbv-10" target="huza8Dq0BffoJNn7cIbv-11">
          <mxGeometry relative="1" as="geometry">
            <Array as="points" />
          </mxGeometry>
        </mxCell>
        <mxCell id="huza8Dq0BffoJNn7cIbv-25" value="" style="curved=1;startArrow=none;endArrow=block;exitX=0.5;exitY=0.99;entryX=0.5;entryY=-0.01;rounded=0;" edge="1" parent="1" source="huza8Dq0BffoJNn7cIbv-11" target="huza8Dq0BffoJNn7cIbv-12">
          <mxGeometry relative="1" as="geometry">
            <Array as="points" />
          </mxGeometry>
        </mxCell>
        <mxCell id="huza8Dq0BffoJNn7cIbv-26" value="" style="curved=1;startArrow=none;endArrow=block;exitX=0;exitY=0.81;entryX=0.5;entryY=-0.01;rounded=0;" edge="1" parent="1" source="huza8Dq0BffoJNn7cIbv-3" target="huza8Dq0BffoJNn7cIbv-13">
          <mxGeometry relative="1" as="geometry">
            <Array as="points">
              <mxPoint x="122" y="203" />
            </Array>
          </mxGeometry>
        </mxCell>
        <mxCell id="huza8Dq0BffoJNn7cIbv-27" value="" style="curved=1;startArrow=none;endArrow=block;exitX=0.31;exitY=0.99;entryX=0.5;entryY=-0.01;rounded=0;" edge="1" parent="1" source="huza8Dq0BffoJNn7cIbv-7" target="huza8Dq0BffoJNn7cIbv-14">
          <mxGeometry relative="1" as="geometry">
            <Array as="points">
              <mxPoint x="310" y="666" />
            </Array>
          </mxGeometry>
        </mxCell>
        <mxCell id="huza8Dq0BffoJNn7cIbv-28" value="" style="curved=1;startArrow=none;endArrow=block;exitX=0.5;exitY=0.99;entryX=0.06;entryY=-0.01;rounded=0;" edge="1" parent="1" source="huza8Dq0BffoJNn7cIbv-9" target="huza8Dq0BffoJNn7cIbv-15">
          <mxGeometry relative="1" as="geometry">
            <Array as="points">
              <mxPoint x="497" y="899" />
            </Array>
          </mxGeometry>
        </mxCell>
        <mxCell id="huza8Dq0BffoJNn7cIbv-29" value="" style="curved=1;startArrow=none;endArrow=block;exitX=0.5;exitY=0.99;entryX=0.95;entryY=-0.01;rounded=0;" edge="1" parent="1" source="huza8Dq0BffoJNn7cIbv-12" target="huza8Dq0BffoJNn7cIbv-15">
          <mxGeometry relative="1" as="geometry">
            <Array as="points">
              <mxPoint x="806" y="899" />
            </Array>
          </mxGeometry>
        </mxCell>
        <mxCell id="huza8Dq0BffoJNn7cIbv-121" value="&lt;span style=&quot;color: rgba(0, 0, 0, 0); font-family: monospace; font-size: 0px; text-align: start; text-wrap-mode: nowrap;&quot;&gt;%3CmxGraphModel%3E%3Croot%3E%3CmxCell%20id%3D%220%22%2F%3E%3CmxCell%20id%3D%221%22%20parent%3D%220%22%2F%3E%3CmxCell%20id%3D%222%22%20value%3D%22USER%22%20style%3D%22shape%3Dtable%3BstartSize%3D25%3Bcontainer%3D1%3Bcollapsible%3D0%3BchildLayout%3DtableLayout%3BfixedRows%3D1%3BrowLines%3D1%3BfontStyle%3D1%3Balign%3Dcenter%3BresizeLast%3D1%3B%22%20vertex%3D%221%22%20parent%3D%221%22%3E%3CmxGeometry%20x%3D%22143%22%20y%3D%221190%22%20width%3D%22286%22%20height%3D%22157%22%20as%3D%22geometry%22%2F%3E%3C%2FmxCell%3E%3CmxCell%20id%3D%223%22%20style%3D%22shape%3DtableRow%3Bhorizontal%3D0%3BstartSize%3D0%3BswimlaneHead%3D0%3BswimlaneBody%3D0%3BfillColor%3Dnone%3Bcollapsible%3D0%3BdropTarget%3D0%3Bpoints%3D%5B%5B0%2C0.5%5D%2C%5B1%2C0.5%5D%5D%3BportConstraint%3Deastwest%3Btop%3D0%3Bleft%3D0%3Bright%3D0%3Bbottom%3D0%3B%22%20vertex%3D%221%22%20parent%3D%222%22%3E%3CmxGeometry%20y%3D%2225%22%20width%3D%22286%22%20height%3D%2222%22%20as%3D%22geometry%22%2F%3E%3C%2FmxCell%3E%3CmxCell%20id%3D%224%22%20value%3D%22int%22%20style%3D%22shape%3DpartialRectangle%3Bconnectable%3D0%3BfillColor%3Dnone%3Btop%3D0%3Bleft%3D0%3Bbottom%3D0%3Bright%3D0%3Balign%3Dleft%3BspacingLeft%3D2%3Boverflow%3Dhidden%3BfontSize%3D11%3B%22%20vertex%3D%221%22%20parent%3D%223%22%3E%3CmxGeometry%20width%3D%2236%22%20height%3D%2222%22%20as%3D%22geometry%22%3E%3CmxRectangle%20width%3D%2236%22%20height%3D%2222%22%20as%3D%22alternateBounds%22%2F%3E%3C%2FmxGeometry%3E%3C%2FmxCell%3E%3CmxCell%20id%3D%225%22%20value%3D%22id%22%20style%3D%22shape%3DpartialRectangle%3Bconnectable%3D0%3BfillColor%3Dnone%3Btop%3D0%3Bleft%3D0%3Bbottom%3D0%3Bright%3D0%3Balign%3Dleft%3BspacingLeft%3D2%3Boverflow%3Dhidden%3BfontSize%3D11%3B%22%20vertex%3D%221%22%20parent%3D%223%22%3E%3CmxGeometry%20x%3D%2236%22%20width%3D%2260%22%20height%3D%2222%22%20as%3D%22geometry%22%3E%3CmxRectangle%20width%3D%2260%22%20height%3D%2222%22%20as%3D%22alternateBounds%22%2F%3E%3C%2FmxGeometry%3E%3C%2FmxCell%3E%3CmxCell%20id%3D%226%22%20value%3D%22PK%22%20style%3D%22shape%3DpartialRectangle%3Bconnectable%3D0%3BfillColor%3Dnone%3Btop%3D0%3Bleft%3D0%3Bbottom%3D0%3Bright%3D0%3Balign%3Dleft%3BspacingLeft%3D2%3Boverflow%3Dhidden%3BfontSize%3D11%3B%22%20vertex%3D%221%22%20parent%3D%223%22%3E%3CmxGeometry%20x%3D%2296%22%20width%3D%2222%22%20height%3D%2222%22%20as%3D%22geometry%22%3E%3CmxRectangle%20width%3D%2222%22%20height%3D%2222%22%20as%3D%22alternateBounds%22%2F%3E%3C%2FmxGeometry%3E%3C%2FmxCell%3E%3CmxCell%20id%3D%227%22%20value%3D%22Primary%20Key%22%20style%3D%22shape%3DpartialRectangle%3Bconnectable%3D0%3BfillColor%3Dnone%3Btop%3D0%3Bleft%3D0%3Bbottom%3D0%3Bright%3D0%3Balign%3Dleft%3BspacingLeft%3D2%3Boverflow%3Dhidden%3BfontSize%3D11%3B%22%20vertex%3D%221%22%20parent%3D%223%22%3E%3CmxGeometry%20x%3D%22118%22%20width%3D%22168%22%20height%3D%2222%22%20as%3D%22geometry%22%3E%3CmxRectangle%20width%3D%22168%22%20height%3D%2222%22%20as%3D%22alternateBounds%22%2F%3E%3C%2FmxGeometry%3E%3C%2FmxCell%3E%3CmxCell%20id%3D%228%22%20style%3D%22shape%3DtableRow%3Bhorizontal%3D0%3BstartSize%3D0%3BswimlaneHead%3D0%3BswimlaneBody%3D0%3BfillColor%3Dnone%3Bcollapsible%3D0%3BdropTarget%3D0%3Bpoints%3D%5B%5B0%2C0.5%5D%2C%5B1%2C0.5%5D%5D%3BportConstraint%3Deastwest%3Btop%3D0%3Bleft%3D0%3Bright%3D0%3Bbottom%3D0%3B%22%20vertex%3D%221%22%20parent%3D%222%22%3E%3CmxGeometry%20y%3D%2247%22%20width%3D%22286%22%20height%3D%2222%22%20as%3D%22geometry%22%2F%3E%3C%2FmxCell%3E%3CmxCell%20id%3D%229%22%20value%3D%22string%22%20style%3D%22shape%3DpartialRectangle%3Bconnectable%3D0%3BfillColor%3Dnone%3Btop%3D0%3Bleft%3D0%3Bbottom%3D0%3Bright%3D0%3Balign%3Dleft%3BspacingLeft%3D2%3Boverflow%3Dhidden%3BfontSize%3D11%3B%22%20vertex%3D%221%22%20parent%3D%228%22%3E%3CmxGeometry%20width%3D%2236%22%20height%3D%2222%22%20as%3D%22geometry%22%3E%3CmxRectangle%20width%3D%2236%22%20height%3D%2222%22%20as%3D%22alternateBounds%22%2F%3E%3C%2FmxGeometry%3E%3C%2FmxCell%3E%3CmxCell%20id%3D%2210%22%20value%3D%22username%22%20style%3D%22shape%3DpartialRectangle%3Bconnectable%3D0%3BfillColor%3Dnone%3Btop%3D0%3Bleft%3D0%3Bbottom%3D0%3Bright%3D0%3Balign%3Dleft%3BspacingLeft%3D2%3Boverflow%3Dhidden%3BfontSize%3D11%3B%22%20vertex%3D%221%22%20parent%3D%228%22%3E%3CmxGeometry%20x%3D%2236%22%20width%3D%2260%22%20height%3D%2222%22%20as%3D%22geometry%22%3E%3CmxRectangle%20width%3D%2260%22%20height%3D%2222%22%20as%3D%22alternateBounds%22%2F%3E%3C%2FmxGeometry%3E%3C%2FmxCell%3E%3CmxCell%20id%3D%2211%22%20value%3D%22%22%20style%3D%22shape%3DpartialRectangle%3Bconnectable%3D0%3BfillColor%3Dnone%3Btop%3D0%3Bleft%3D0%3Bbottom%3D0%3Bright%3D0%3Balign%3Dleft%3BspacingLeft%3D2%3Boverflow%3Dhidden%3BfontSize%3D11%3B%22%20vertex%3D%221%22%20parent%3D%228%22%3E%3CmxGeometry%20x%3D%2296%22%20width%3D%2222%22%20height%3D%2222%22%20as%3D%22geometry%22%3E%3CmxRectangle%20width%3D%2222%22%20height%3D%2222%22%20as%3D%22alternateBounds%22%2F%3E%3C%2FmxGeometry%3E%3C%2FmxCell%3E%3CmxCell%20id%3D%2212%22%20value%3D%22Unique%20username%20for%20the%20user%22%20style%3D%22shape%3DpartialRectangle%3Bconnectable%3D0%3BfillColor%3Dnone%3Btop%3D0%3Bleft%3D0%3Bbottom%3D0%3Bright%3D0%3Balign%3Dleft%3BspacingLeft%3D2%3Boverflow%3Dhidden%3BfontSize%3D11%3B%22%20vertex%3D%221%22%20parent%3D%228%22%3E%3CmxGeometry%20x%3D%22118%22%20width%3D%22168%22%20height%3D%2222%22%20as%3D%22geometry%22%3E%3CmxRectangle%20width%3D%22168%22%20height%3D%2222%22%20as%3D%22alternateBounds%22%2F%3E%3C%2FmxGeometry%3E%3C%2FmxCell%3E%3CmxCell%20id%3D%2213%22%20style%3D%22shape%3DtableRow%3Bhorizontal%3D0%3BstartSize%3D0%3BswimlaneHead%3D0%3BswimlaneBody%3D0%3BfillColor%3Dnone%3Bcollapsible%3D0%3BdropTarget%3D0%3Bpoints%3D%5B%5B0%2C0.5%5D%2C%5B1%2C0.5%5D%5D%3BportConstraint%3Deastwest%3Btop%3D0%3Bleft%3D0%3Bright%3D0%3Bbottom%3D0%3B%22%20vertex%3D%221%22%20parent%3D%222%22%3E%3CmxGeometry%20y%3D%2269%22%20width%3D%22286%22%20height%3D%2222%22%20as%3D%22geometry%22%2F%3E%3C%2FmxCell%3E%3CmxCell%20id%3D%2214%22%20value%3D%22string%22%20style%3D%22shape%3DpartialRectangle%3Bconnectable%3D0%3BfillColor%3Dnone%3Btop%3D0%3Bleft%3D0%3Bbottom%3D0%3Bright%3D0%3Balign%3Dleft%3BspacingLeft%3D2%3Boverflow%3Dhidden%3BfontSize%3D11%3B%22%20vertex%3D%221%22%20parent%3D%2213%22%3E%3CmxGeometry%20width%3D%2236%22%20height%3D%2222%22%20as%3D%22geometry%22%3E%3CmxRectangle%20width%3D%2236%22%20height%3D%2222%22%20as%3D%22alternateBounds%22%2F%3E%3C%2FmxGeometry%3E%3C%2FmxCell%3E%3CmxCell%20id%3D%2215%22%20value%3D%22email%22%20style%3D%22shape%3DpartialRectangle%3Bconnectable%3D0%3BfillColor%3Dnone%3Btop%3D0%3Bleft%3D0%3Bbottom%3D0%3Bright%3D0%3Balign%3Dleft%3BspacingLeft%3D2%3Boverflow%3Dhidden%3BfontSize%3D11%3B%22%20vertex%3D%221%22%20parent%3D%2213%22%3E%3CmxGeometry%20x%3D%2236%22%20width%3D%2260%22%20height%3D%2222%22%20as%3D%22geometry%22%3E%3CmxRectangle%20width%3D%2260%22%20height%3D%2222%22%20as%3D%22alternateBounds%22%2F%3E%3C%2FmxGeometry%3E%3C%2FmxCell%3E%3CmxCell%20id%3D%2216%22%20value%3D%22%22%20style%3D%22shape%3DpartialRectangle%3Bconnectable%3D0%3BfillColor%3Dnone%3Btop%3D0%3Bleft%3D0%3Bbottom%3D0%3Bright%3D0%3Balign%3Dleft%3BspacingLeft%3D2%3Boverflow%3Dhidden%3BfontSize%3D11%3B%22%20vertex%3D%221%22%20parent%3D%2213%22%3E%3CmxGeometry%20x%3D%2296%22%20width%3D%2222%22%20height%3D%2222%22%20as%3D%22geometry%22%3E%3CmxRectangle%20width%3D%2222%22%20height%3D%2222%22%20as%3D%22alternateBounds%22%2F%3E%3C%2FmxGeometry%3E%3C%2FmxCell%3E%3CmxCell%20id%3D%2217%22%20value%3D%22User%20email%20address%22%20style%3D%22shape%3DpartialRectangle%3Bconnectable%3D0%3BfillColor%3Dnone%3Btop%3D0%3Bleft%3D0%3Bbottom%3D0%3Bright%3D0%3Balign%3Dleft%3BspacingLeft%3D2%3Boverflow%3Dhidden%3BfontSize%3D11%3B%22%20vertex%3D%221%22%20parent%3D%2213%22%3E%3CmxGeometry%20x%3D%22118%22%20width%3D%22168%22%20height%3D%2222%22%20as%3D%22geometry%22%3E%3CmxRectangle%20width%3D%22168%22%20height%3D%2222%22%20as%3D%22alternateBounds%22%2F%3E%3C%2FmxGeometry%3E%3C%2FmxCell%3E%3CmxCell%20id%3D%2218%22%20style%3D%22shape%3DtableRow%3Bhorizontal%3D0%3BstartSize%3D0%3BswimlaneHead%3D0%3BswimlaneBody%3D0%3BfillColor%3Dnone%3Bcollapsible%3D0%3BdropTarget%3D0%3Bpoints%3D%5B%5B0%2C0.5%5D%2C%5B1%2C0.5%5D%5D%3BportConstraint%3Deastwest%3Btop%3D0%3Bleft%3D0%3Bright%3D0%3Bbottom%3D0%3B%22%20vertex%3D%221%22%20parent%3D%222%22%3E%3CmxGeometry%20y%3D%2291%22%20width%3D%22286%22%20height%3D%2222%22%20as%3D%22geometry%22%2F%3E%3C%2FmxCell%3E%3CmxCell%20id%3D%2219%22%20value%3D%22string%22%20style%3D%22shape%3DpartialRectangle%3Bconnectable%3D0%3BfillColor%3Dnone%3Btop%3D0%3Bleft%3D0%3Bbottom%3D0%3Bright%3D0%3Balign%3Dleft%3BspacingLeft%3D2%3Boverflow%3Dhidden%3BfontSize%3D11%3B%22%20vertex%3D%221%22%20parent%3D%2218%22%3E%3CmxGeometry%20width%3D%2236%22%20height%3D%2222%22%20as%3D%22geometry%22%3E%3CmxRectangle%20width%3D%2236%22%20height%3D%2222%22%20as%3D%22alternateBounds%22%2F%3E%3C%2FmxGeometry%3E%3C%2FmxCell%3E%3CmxCell%20id%3D%2220%22%20value%3D%22password%22%20style%3D%22shape%3DpartialRectangle%3Bconnectable%3D0%3BfillColor%3Dnone%3Btop%3D0%3Bleft%3D0%3Bbottom%3D0%3Bright%3D0%3Balign%3Dleft%3BspacingLeft%3D2%3Boverflow%3Dhidden%3BfontSize%3D11%3B%22%20vertex%3D%221%22%20parent%3D%2218%22%3E%3CmxGeometry%20x%3D%2236%22%20width%3D%2260%22%20height%3D%2222%22%20as%3D%22geometry%22%3E%3CmxRectangle%20width%3D%2260%22%20height%3D%2222%22%20as%3D%22alternateBounds%22%2F%3E%3C%2FmxGeometry%3E%3C%2FmxCell%3E%3CmxCell%20id%3D%2221%22%20value%3D%22%22%20style%3D%22shape%3DpartialRectangle%3Bconnectable%3D0%3BfillColor%3Dnone%3Btop%3D0%3Bleft%3D0%3Bbottom%3D0%3Bright%3D0%3Balign%3Dleft%3BspacingLeft%3D2%3Boverflow%3Dhidden%3BfontSize%3D11%3B%22%20vertex%3D%221%22%20parent%3D%2218%22%3E%3CmxGeometry%20x%3D%2296%22%20width%3D%2222%22%20height%3D%2222%22%20as%3D%22geometry%22%3E%3CmxRectangle%20width%3D%2222%22%20height%3D%2222%22%20as%3D%22alternateBounds%22%2F%3E%3C%2FmxGeometry%3E%3C%2FmxCell%3E%3CmxCell%20id%3D%2222%22%20value%3D%22Hashed%20user%20password%22%20style%3D%22shape%3DpartialRectangle%3Bconnectable%3D0%3BfillColor%3Dnone%3Btop%3D0%3Bleft%3D0%3Bbottom%3D0%3Bright%3D0%3Balign%3Dleft%3BspacingLeft%3D2%3Boverflow%3Dhidden%3BfontSize%3D11%3B%22%20vertex%3D%221%22%20parent%3D%2218%22%3E%3CmxGeometry%20x%3D%22118%22%20width%3D%22168%22%20height%3D%2222%22%20as%3D%22geometry%22%3E%3CmxRectangle%20width%3D%22168%22%20height%3D%2222%22%20as%3D%22alternateBounds%22%2F%3E%3C%2FmxGeometry%3E%3C%2FmxCell%3E%3CmxCell%20id%3D%2223%22%20style%3D%22shape%3DtableRow%3Bhorizontal%3D0%3BstartSize%3D0%3BswimlaneHead%3D0%3BswimlaneBody%3D0%3BfillColor%3Dnone%3Bcollapsible%3D0%3BdropTarget%3D0%3Bpoints%3D%5B%5B0%2C0.5%5D%2C%5B1%2C0.5%5D%5D%3BportConstraint%3Deastwest%3Btop%3D0%3Bleft%3D0%3Bright%3D0%3Bbottom%3D0%3B%22%20vertex%3D%221%22%20parent%3D%222%22%3E%3CmxGeometry%20y%3D%22113%22%20width%3D%22286%22%20height%3D%2222%22%20as%3D%22geometry%22%2F%3E%3C%2FmxCell%3E%3CmxCell%20id%3D%2224%22%20value%3D%22date%22%20style%3D%22shape%3DpartialRectangle%3Bconnectable%3D0%3BfillColor%3Dnone%3Btop%3D0%3Bleft%3D0%3Bbottom%3D0%3Bright%3D0%3Balign%3Dleft%3BspacingLeft%3D2%3Boverflow%3Dhidden%3BfontSize%3D11%3B%22%20vertex%3D%221%22%20parent%3D%2223%22%3E%3CmxGeometry%20width%3D%2236%22%20height%3D%2222%22%20as%3D%22geometry%22%3E%3CmxRectangle%20width%3D%2236%22%20height%3D%2222%22%20as%3D%22alternateBounds%22%2F%3E%3C%2FmxGeometry%3E%3C%2FmxCell%3E%3CmxCell%20id%3D%2225%22%20value%3D%22created_at%22%20style%3D%22shape%3DpartialRectangle%3Bconnectable%3D0%3BfillColor%3Dnone%3Btop%3D0%3Bleft%3D0%3Bbottom%3D0%3Bright%3D0%3Balign%3Dleft%3BspacingLeft%3D2%3Boverflow%3Dhidden%3BfontSize%3D11%3B%22%20vertex%3D%221%22%20parent%3D%2223%22%3E%3CmxGeometry%20x%3D%2236%22%20width%3D%2260%22%20height%3D%2222%22%20as%3D%22geometry%22%3E%3CmxRectangle%20width%3D%2260%22%20height%3D%2222%22%20as%3D%22alternateBounds%22%2F%3E%3C%2FmxGeometry%3E%3C%2FmxCell%3E%3CmxCell%20id%3D%2226%22%20value%3D%22%22%20style%3D%22shape%3DpartialRectangle%3Bconnectable%3D0%3BfillColor%3Dnone%3Btop%3D0%3Bleft%3D0%3Bbottom%3D0%3Bright%3D0%3Balign%3Dleft%3BspacingLeft%3D2%3Boverflow%3Dhidden%3BfontSize%3D11%3B%22%20vertex%3D%221%22%20parent%3D%2223%22%3E%3CmxGeometry%20x%3D%2296%22%20width%3D%2222%22%20height%3D%2222%22%20as%3D%22geometry%22%3E%3CmxRectangle%20width%3D%2222%22%20height%3D%2222%22%20as%3D%22alternateBounds%22%2F%3E%3C%2FmxGeometry%3E%3C%2FmxCell%3E%3CmxCell%20id%3D%2227%22%20value%3D%22Account%20creation%20date%22%20style%3D%22shape%3DpartialRectangle%3Bconnectable%3D0%3BfillColor%3Dnone%3Btop%3D0%3Bleft%3D0%3Bbottom%3D0%3Bright%3D0%3Balign%3Dleft%3BspacingLeft%3D2%3Boverflow%3Dhidden%3BfontSize%3D11%3B%22%20vertex%3D%221%22%20parent%3D%2223%22%3E%3CmxGeometry%20x%3D%22118%22%20width%3D%22168%22%20height%3D%2222%22%20as%3D%22geometry%22%3E%3CmxRectangle%20width%3D%22168%22%20height%3D%2222%22%20as%3D%22alternateBounds%22%2F%3E%3C%2FmxGeometry%3E%3C%2FmxCell%3E%3CmxCell%20id%3D%2228%22%20style%3D%22shape%3DtableRow%3Bhorizontal%3D0%3BstartSize%3D0%3BswimlaneHead%3D0%3BswimlaneBody%3D0%3BfillColor%3Dnone%3Bcollapsible%3D0%3BdropTarget%3D0%3Bpoints%3D%5B%5B0%2C0.5%5D%2C%5B1%2C0.5%5D%5D%3BportConstraint%3Deastwest%3Btop%3D0%3Bleft%3D0%3Bright%3D0%3Bbottom%3D0%3B%22%20vertex%3D%221%22%20parent%3D%222%22%3E%3CmxGeometry%20y%3D%22135%22%20width%3D%22286%22%20height%3D%2222%22%20as%3D%22geometry%22%2F%3E%3C%2FmxCell%3E%3CmxCell%20id%3D%2229%22%20value%3D%22date%22%20style%3D%22shape%3DpartialRectangle%3Bconnectable%3D0%3BfillColor%3Dnone%3Btop%3D0%3Bleft%3D0%3Bbottom%3D0%3Bright%3D0%3Balign%3Dleft%3BspacingLeft%3D2%3Boverflow%3Dhidden%3BfontSize%3D11%3B%22%20vertex%3D%221%22%20parent%3D%2228%22%3E%3CmxGeometry%20width%3D%2236%22%20height%3D%2222%22%20as%3D%22geometry%22%3E%3CmxRectangle%20width%3D%2236%22%20height%3D%2222%22%20as%3D%22alternateBounds%22%2F%3E%3C%2FmxGeometry%3E%3C%2FmxCell%3E%3CmxCell%20id%3D%2230%22%20value%3D%22updated_at%22%20style%3D%22shape%3DpartialRectangle%3Bconnectable%3D0%3BfillColor%3Dnone%3Btop%3D0%3Bleft%3D0%3Bbottom%3D0%3Bright%3D0%3Balign%3Dleft%3BspacingLeft%3D2%3Boverflow%3Dhidden%3BfontSize%3D11%3B%22%20vertex%3D%221%22%20parent%3D%2228%22%3E%3CmxGeometry%20x%3D%2236%22%20width%3D%2260%22%20height%3D%2222%22%20as%3D%22geometry%22%3E%3CmxRectangle%20width%3D%2260%22%20height%3D%2222%22%20as%3D%22alternateBounds%22%2F%3E%3C%2FmxGeometry%3E%3C%2FmxCell%3E%3CmxCell%20id%3D%2231%22%20value%3D%22%22%20style%3D%22shape%3DpartialRectangle%3Bconnectable%3D0%3BfillColor%3Dnone%3Btop%3D0%3Bleft%3D0%3Bbottom%3D0%3Bright%3D0%3Balign%3Dleft%3BspacingLeft%3D2%3Boverflow%3Dhidden%3BfontSize%3D11%3B%22%20vertex%3D%221%22%20parent%3D%2228%22%3E%3CmxGeometry%20x%3D%2296%22%20width%3D%2222%22%20height%3D%2222%22%20as%3D%22geometry%22%3E%3CmxRectangle%20width%3D%2222%22%20height%3D%2222%22%20as%3D%22alternateBounds%22%2F%3E%3C%2FmxGeometry%3E%3C%2FmxCell%3E%3CmxCell%20id%3D%2232%22%20value%3D%22Account%20update%20date%22%20style%3D%22shape%3DpartialRectangle%3Bconnectable%3D0%3BfillColor%3Dnone%3Btop%3D0%3Bleft%3D0%3Bbottom%3D0%3Bright%3D0%3Balign%3Dleft%3BspacingLeft%3D2%3Boverflow%3Dhidden%3BfontSize%3D11%3B%22%20vertex%3D%221%22%20parent%3D%2228%22%3E%3CmxGeometry%20x%3D%22118%22%20width%3D%22168%22%20height%3D%2222%22%20as%3D%22geometry%22%3E%3CmxRectangle%20width%3D%22168%22%20height%3D%2222%22%20as%3D%22alternateBounds%22%2F%3E%3C%2FmxGeometry%3E%3C%2FmxCell%3E%3CmxCell%20id%3D%2233%22%20value%3D%22TEAM%22%20style%3D%22shape%3Dtable%3BstartSize%3D25%3Bcontainer%3D1%3Bcollapsible%3D0%3BchildLayout%3DtableLayout%3BfixedRows%3D1%3BrowLines%3D1%3BfontStyle%3D1%3Balign%3Dcenter%3BresizeLast%3D1%3B%22%20vertex%3D%221%22%20parent%3D%221%22%3E%3CmxGeometry%20x%3D%22509%22%20y%3D%221201%22%20width%3D%22322%22%20height%3D%22135%22%20as%3D%22geometry%22%2F%3E%3C%2FmxCell%3E%3CmxCell%20id%3D%2234%22%20style%3D%22shape%3DtableRow%3Bhorizontal%3D0%3BstartSize%3D0%3BswimlaneHead%3D0%3BswimlaneBody%3D0%3BfillColor%3Dnone%3Bcollapsible%3D0%3BdropTarget%3D0%3Bpoints%3D%5B%5B0%2C0.5%5D%2C%5B1%2C0.5%5D%5D%3BportConstraint%3Deastwest%3Btop%3D0%3Bleft%3D0%3Bright%3D0%3Bbottom%3D0%3B%22%20vertex%3D%221%22%20parent%3D%2233%22%3E%3CmxGeometry%20y%3D%2225%22%20width%3D%22322%22%20height%3D%2222%22%20as%3D%22geometry%22%2F%3E%3C%2FmxCell%3E%3CmxCell%20id%3D%2235%22%20value%3D%22int%22%20style%3D%22shape%3DpartialRectangle%3Bconnectable%3D0%3BfillColor%3Dnone%3Btop%3D0%3Bleft%3D0%3Bbottom%3D0%3Bright%3D0%3Balign%3Dleft%3BspacingLeft%3D2%3Boverflow%3Dhidden%3BfontSize%3D11%3B%22%20vertex%3D%221%22%20parent%3D%2234%22%3E%3CmxGeometry%20width%3D%2236%22%20height%3D%2222%22%20as%3D%22geometry%22%3E%3CmxRectangle%20width%3D%2236%22%20height%3D%2222%22%20as%3D%22alternateBounds%22%2F%3E%3C%2FmxGeometry%3E%3C%2FmxCell%3E%3CmxCell%20id%3D%2236%22%20value%3D%22id%22%20style%3D%22shape%3DpartialRectangle%3Bconnectable%3D0%3BfillColor%3Dnone%3Btop%3D0%3Bleft%3D0%3Bbottom%3D0%3Bright%3D0%3Balign%3Dleft%3BspacingLeft%3D2%3Boverflow%3Dhidden%3BfontSize%3D11%3B%22%20vertex%3D%221%22%20parent%3D%2234%22%3E%3CmxGeometry%20x%3D%2236%22%20width%3D%2266%22%20height%3D%2222%22%20as%3D%22geometry%22%3E%3CmxRectangle%20width%3D%2266%22%20height%3D%2222%22%20as%3D%22alternateBounds%22%2F%3E%3C%2FmxGeometry%3E%3C%2FmxCell%3E%3CmxCell%20id%3D%2237%22%20value%3D%22PK%22%20style%3D%22shape%3DpartialRectangle%3Bconnectable%3D0%3BfillColor%3Dnone%3Btop%3D0%3Bleft%3D0%3Bbottom%3D0%3Bright%3D0%3Balign%3Dleft%3BspacingLeft%3D2%3Boverflow%3Dhidden%3BfontSize%3D11%3B%22%20vertex%3D%221%22%20parent%3D%2234%22%3E%3CmxGeometry%20x%3D%22102%22%20width%3D%2222%22%20height%3D%2222%22%20as%3D%22geometry%22%3E%3CmxRectangle%20width%3D%2222%22%20height%3D%2222%22%20as%3D%22alternateBounds%22%2F%3E%3C%2FmxGeometry%3E%3C%2FmxCell%3E%3CmxCell%20id%3D%2238%22%20value%3D%22Primary%20Key%22%20style%3D%22shape%3DpartialRectangle%3Bconnectable%3D0%3BfillColor%3Dnone%3Btop%3D0%3Bleft%3D0%3Bbottom%3D0%3Bright%3D0%3Balign%3Dleft%3BspacingLeft%3D2%3Boverflow%3Dhidden%3BfontSize%3D11%3B%22%20vertex%3D%221%22%20parent%3D%2234%22%3E%3CmxGeometry%20x%3D%22124%22%20width%3D%22198%22%20height%3D%2222%22%20as%3D%22geometry%22%3E%3CmxRectangle%20width%3D%22198%22%20height%3D%2222%22%20as%3D%22alternateBounds%22%2F%3E%3C%2FmxGeometry%3E%3C%2FmxCell%3E%3CmxCell%20id%3D%2239%22%20style%3D%22shape%3DtableRow%3Bhorizontal%3D0%3BstartSize%3D0%3BswimlaneHead%3D0%3BswimlaneBody%3D0%3BfillColor%3Dnone%3Bcollapsible%3D0%3BdropTarget%3D0%3Bpoints%3D%5B%5B0%2C0.5%5D%2C%5B1%2C0.5%5D%5D%3BportConstraint%3Deastwest%3Btop%3D0%3Bleft%3D0%3Bright%3D0%3Bbottom%3D0%3B%22%20vertex%3D%221%22%20parent%3D%2233%22%3E%3CmxGeometry%20y%3D%2247%22%20width%3D%22322%22%20height%3D%2222%22%20as%3D%22geometry%22%2F%3E%3C%2FmxCell%3E%3CmxCell%20id%3D%2240%22%20value%3D%22string%22%20style%3D%22shape%3DpartialRectangle%3Bconnectable%3D0%3BfillColor%3Dnone%3Btop%3D0%3Bleft%3D0%3Bbottom%3D0%3Bright%3D0%3Balign%3Dleft%3BspacingLeft%3D2%3Boverflow%3Dhidden%3BfontSize%3D11%3B%22%20vertex%3D%221%22%20parent%3D%2239%22%3E%3CmxGeometry%20width%3D%2236%22%20height%3D%2222%22%20as%3D%22geometry%22%3E%3CmxRectangle%20width%3D%2236%22%20height%3D%2222%22%20as%3D%22alternateBounds%22%2F%3E%3C%2FmxGeometry%3E%3C%2FmxCell%3E%3CmxCell%20id%3D%2241%22%20value%3D%22name%22%20style%3D%22shape%3DpartialRectangle%3Bconnectable%3D0%3BfillColor%3Dnone%3Btop%3D0%3Bleft%3D0%3Bbottom%3D0%3Bright%3D0%3Balign%3Dleft%3BspacingLeft%3D2%3Boverflow%3Dhidden%3BfontSize%3D11%3B%22%20vertex%3D%221%22%20parent%3D%2239%22%3E%3CmxGeometry%20x%3D%2236%22%20width%3D%2266%22%20height%3D%2222%22%20as%3D%22geometry%22%3E%3CmxRectangle%20width%3D%2266%22%20height%3D%2222%22%20as%3D%22alternateBounds%22%2F%3E%3C%2FmxGeometry%3E%3C%2FmxCell%3E%3CmxCell%20id%3D%2242%22%20value%3D%22%22%20style%3D%22shape%3DpartialRectangle%3Bconnectable%3D0%3BfillColor%3Dnone%3Btop%3D0%3Bleft%3D0%3Bbottom%3D0%3Bright%3D0%3Balign%3Dleft%3BspacingLeft%3D2%3Boverflow%3Dhidden%3BfontSize%3D11%3B%22%20vertex%3D%221%22%20parent%3D%2239%22%3E%3CmxGeometry%20x%3D%22102%22%20width%3D%2222%22%20height%3D%2222%22%20as%3D%22geometry%22%3E%3CmxRectangle%20width%3D%2222%22%20height%3D%2222%22%20as%3D%22alternateBounds%22%2F%3E%3C%2FmxGeometry%3E%3C%2FmxCell%3E%3CmxCell%20id%3D%2243%22%20value%3D%22Unique%20name%20for%20the%20team%22%20style%3D%22shape%3DpartialRectangle%3Bconnectable%3D0%3BfillColor%3Dnone%3Btop%3D0%3Bleft%3D0%3Bbottom%3D0%3Bright%3D0%3Balign%3Dleft%3BspacingLeft%3D2%3Boverflow%3Dhidden%3BfontSize%3D11%3B%22%20vertex%3D%221%22%20parent%3D%2239%22%3E%3CmxGeometry%20x%3D%22124%22%20width%3D%22198%22%20height%3D%2222%22%20as%3D%22geometry%22%3E%3CmxRectangle%20width%3D%22198%22%20height%3D%2222%22%20as%3D%22alternateBounds%22%2F%3E%3C%2FmxGeometry%3E%3C%2FmxCell%3E%3CmxCell%20id%3D%2244%22%20style%3D%22shape%3DtableRow%3Bhorizontal%3D0%3BstartSize%3D0%3BswimlaneHead%3D0%3BswimlaneBody%3D0%3BfillColor%3Dnone%3Bcollapsible%3D0%3BdropTarget%3D0%3Bpoints%3D%5B%5B0%2C0.5%5D%2C%5B1%2C0.5%5D%5D%3BportConstraint%3Deastwest%3Btop%3D0%3Bleft%3D0%3Bright%3D0%3Bbottom%3D0%3B%22%20vertex%3D%221%22%20parent%3D%2233%22%3E%3CmxGeometry%20y%3D%2269%22%20width%3D%22322%22%20height%3D%2222%22%20as%3D%22geometry%22%2F%3E%3C%2FmxCell%3E%3CmxCell%20id%3D%2245%22%20value%3D%22string%22%20style%3D%22shape%3DpartialRectangle%3Bconnectable%3D0%3BfillColor%3Dnone%3Btop%3D0%3Bleft%3D0%3Bbottom%3D0%3Bright%3D0%3Balign%3Dleft%3BspacingLeft%3D2%3Boverflow%3Dhidden%3BfontSize%3D11%3B%22%20vertex%3D%221%22%20parent%3D%2244%22%3E%3CmxGeometry%20width%3D%2236%22%20height%3D%2222%22%20as%3D%22geometry%22%3E%3CmxRectangle%20width%3D%2236%22%20height%3D%2222%22%20as%3D%22alternateBounds%22%2F%3E%3C%2FmxGeometry%3E%3C%2FmxCell%3E%3CmxCell%20id%3D%2246%22%20value%3D%22description%22%20style%3D%22shape%3DpartialRectangle%3Bconnectable%3D0%3BfillColor%3Dnone%3Btop%3D0%3Bleft%3D0%3Bbottom%3D0%3Bright%3D0%3Balign%3Dleft%3BspacingLeft%3D2%3Boverflow%3Dhidden%3BfontSize%3D11%3B%22%20vertex%3D%221%22%20parent%3D%2244%22%3E%3CmxGeometry%20x%3D%2236%22%20width%3D%2266%22%20height%3D%2222%22%20as%3D%22geometry%22%3E%3CmxRectangle%20width%3D%2266%22%20height%3D%2222%22%20as%3D%22alternateBounds%22%2F%3E%3C%2FmxGeometry%3E%3C%2FmxCell%3E%3CmxCell%20id%3D%2247%22%20value%3D%22%22%20style%3D%22shape%3DpartialRectangle%3Bconnectable%3D0%3BfillColor%3Dnone%3Btop%3D0%3Bleft%3D0%3Bbottom%3D0%3Bright%3D0%3Balign%3Dleft%3BspacingLeft%3D2%3Boverflow%3Dhidden%3BfontSize%3D11%3B%22%20vertex%3D%221%22%20parent%3D%2244%22%3E%3CmxGeometry%20x%3D%22102%22%20width%3D%2222%22%20height%3D%2222%22%20as%3D%22geometry%22%3E%3CmxRectangle%20width%3D%2222%22%20height%3D%2222%22%20as%3D%22alternateBounds%22%2F%3E%3C%2FmxGeometry%3E%3C%2FmxCell%3E%3CmxCell%20id%3D%2248%22%20value%3D%22Brief%20description%20of%20the%20team%22%20style%3D%22shape%3DpartialRectangle%3Bconnectable%3D0%3BfillColor%3Dnone%3Btop%3D0%3Bleft%3D0%3Bbottom%3D0%3Bright%3D0%3Balign%3Dleft%3BspacingLeft%3D2%3Boverflow%3Dhidden%3BfontSize%3D11%3B%22%20vertex%3D%221%22%20parent%3D%2244%22%3E%3CmxGeometry%20x%3D%22124%22%20width%3D%22198%22%20height%3D%2222%22%20as%3D%22geometry%22%3E%3CmxRectangle%20width%3D%22198%22%20height%3D%2222%22%20as%3D%22alternateBounds%22%2F%3E%3C%2FmxGeometry%3E%3C%2FmxCell%3E%3CmxCell%20id%3D%2249%22%20style%3D%22shape%3DtableRow%3Bhorizontal%3D0%3BstartSize%3D0%3BswimlaneHead%3D0%3BswimlaneBody%3D0%3BfillColor%3Dnone%3Bcollapsible%3D0%3BdropTarget%3D0%3Bpoints%3D%5B%5B0%2C0.5%5D%2C%5B1%2C0.5%5D%5D%3BportConstraint%3Deastwest%3Btop%3D0%3Bleft%3D0%3Bright%3D0%3Bbottom%3D0%3B%22%20vertex%3D%221%22%20parent%3D%2233%22%3E%3CmxGeometry%20y%3D%2291%22%20width%3D%22322%22%20height%3D%2222%22%20as%3D%22geometry%22%2F%3E%3C%2FmxCell%3E%3CmxCell%20id%3D%2250%22%20value%3D%22date%22%20style%3D%22shape%3DpartialRectangle%3Bconnectable%3D0%3BfillColor%3Dnone%3Btop%3D0%3Bleft%3D0%3Bbottom%3D0%3Bright%3D0%3Balign%3Dleft%3BspacingLeft%3D2%3Boverflow%3Dhidden%3BfontSize%3D11%3B%22%20vertex%3D%221%22%20parent%3D%2249%22%3E%3CmxGeometry%20width%3D%2236%22%20height%3D%2222%22%20as%3D%22geometry%22%3E%3CmxRectangle%20width%3D%2236%22%20height%3D%2222%22%20as%3D%22alternateBounds%22%2F%3E%3C%2FmxGeometry%3E%3C%2FmxCell%3E%3CmxCell%20id%3D%2251%22%20value%3D%22created_at%22%20style%3D%22shape%3DpartialRectangle%3Bconnectable%3D0%3BfillColor%3Dnone%3Btop%3D0%3Bleft%3D0%3Bbottom%3D0%3Bright%3D0%3Balign%3Dleft%3BspacingLeft%3D2%3Boverflow%3Dhidden%3BfontSize%3D11%3B%22%20vertex%3D%221%22%20parent%3D%2249%22%3E%3CmxGeometry%20x%3D%2236%22%20width%3D%2266%22%20height%3D%2222%22%20as%3D%22geometry%22%3E%3CmxRectangle%20width%3D%2266%22%20height%3D%2222%22%20as%3D%22alternateBounds%22%2F%3E%3C%2FmxGeometry%3E%3C%2FmxCell%3E%3CmxCell%20id%3D%2252%22%20value%3D%22%22%20style%3D%22shape%3DpartialRectangle%3Bconnectable%3D0%3BfillColor%3Dnone%3Btop%3D0%3Bleft%3D0%3Bbottom%3D0%3Bright%3D0%3Balign%3Dleft%3BspacingLeft%3D2%3Boverflow%3Dhidden%3BfontSize%3D11%3B%22%20vertex%3D%221%22%20parent%3D%2249%22%3E%3CmxGeometry%20x%3D%22102%22%20width%3D%2222%22%20height%3D%2222%22%20as%3D%22geometry%22%3E%3CmxRectangle%20width%3D%2222%22%20height%3D%2222%22%20as%3D%22alternateBounds%22%2F%3E%3C%2FmxGeometry%3E%3C%2FmxCell%3E%3CmxCell%20id%3D%2253%22%20value%3D%22Date%20team%20was%20created%22%20style%3D%22shape%3DpartialRectangle%3Bconnectable%3D0%3BfillColor%3Dnone%3Btop%3D0%3Bleft%3D0%3Bbottom%3D0%3Bright%3D0%3Balign%3Dleft%3BspacingLeft%3D2%3Boverflow%3Dhidden%3BfontSize%3D11%3B%22%20vertex%3D%221%22%20parent%3D%2249%22%3E%3CmxGeometry%20x%3D%22124%22%20width%3D%22198%22%20height%3D%2222%22%20as%3D%22geometry%22%3E%3CmxRectangle%20width%3D%22198%22%20height%3D%2222%22%20as%3D%22alternateBounds%22%2F%3E%3C%2FmxGeometry%3E%3C%2FmxCell%3E%3CmxCell%20id%3D%2254%22%20style%3D%22shape%3DtableRow%3Bhorizontal%3D0%3BstartSize%3D0%3BswimlaneHead%3D0%3BswimlaneBody%3D0%3BfillColor%3Dnone%3Bcollapsible%3D0%3BdropTarget%3D0%3Bpoints%3D%5B%5B0%2C0.5%5D%2C%5B1%2C0.5%5D%5D%3BportConstraint%3Deastwest%3Btop%3D0%3Bleft%3D0%3Bright%3D0%3Bbottom%3D0%3B%22%20vertex%3D%221%22%20parent%3D%2233%22%3E%3CmxGeometry%20y%3D%22113%22%20width%3D%22322%22%20height%3D%2222%22%20as%3D%22geometry%22%2F%3E%3C%2FmxCell%3E%3CmxCell%20id%3D%2255%22%20value%3D%22date%22%20style%3D%22shape%3DpartialRectangle%3Bconnectable%3D0%3BfillColor%3Dnone%3Btop%3D0%3Bleft%3D0%3Bbottom%3D0%3Bright%3D0%3Balign%3Dleft%3BspacingLeft%3D2%3Boverflow%3Dhidden%3BfontSize%3D11%3B%22%20vertex%3D%221%22%20parent%3D%2254%22%3E%3CmxGeometry%20width%3D%2236%22%20height%3D%2222%22%20as%3D%22geometry%22%3E%3CmxRectangle%20width%3D%2236%22%20height%3D%2222%22%20as%3D%22alternateBounds%22%2F%3E%3C%2FmxGeometry%3E%3C%2FmxCell%3E%3CmxCell%20id%3D%2256%22%20value%3D%22updated_at%22%20style%3D%22shape%3DpartialRectangle%3Bconnectable%3D0%3BfillColor%3Dnone%3Btop%3D0%3Bleft%3D0%3Bbottom%3D0%3Bright%3D0%3Balign%3Dleft%3BspacingLeft%3D2%3Boverflow%3Dhidden%3BfontSize%3D11%3B%22%20vertex%3D%221%22%20parent%3D%2254%22%3E%3CmxGeometry%20x%3D%2236%22%20width%3D%2266%22%20height%3D%2222%22%20as%3D%22geometry%22%3E%3CmxRectangle%20width%3D%2266%22%20height%3D%2222%22%20as%3D%22alternateBounds%22%2F%3E%3C%2FmxGeometry%3E%3C%2FmxCell%3E%3CmxCell%20id%3D%2257%22%20value%3D%22%22%20style%3D%22shape%3DpartialRectangle%3Bconnectable%3D0%3BfillColor%3Dnone%3Btop%3D0%3Bleft%3D0%3Bbottom%3D0%3Bright%3D0%3Balign%3Dleft%3BspacingLeft%3D2%3Boverflow%3Dhidden%3BfontSize%3D11%3B%22%20vertex%3D%221%22%20parent%3D%2254%22%3E%3CmxGeometry%20x%3D%22102%22%20width%3D%2222%22%20height%3D%2222%22%20as%3D%22geometry%22%3E%3CmxRectangle%20width%3D%2222%22%20height%3D%2222%22%20as%3D%22alternateBounds%22%2F%3E%3C%2FmxGeometry%3E%3C%2FmxCell%3E%3CmxCell%20id%3D%2258%22%20value%3D%22Date%20team%20information%20was%20updated%22%20style%3D%22shape%3DpartialRectangle%3Bconnectable%3D0%3BfillColor%3Dnone%3Btop%3D0%3Bleft%3D0%3Bbottom%3D0%3Bright%3D0%3Balign%3Dleft%3BspacingLeft%3D2%3Boverflow%3Dhidden%3BfontSize%3D11%3B%22%20vertex%3D%221%22%20parent%3D%2254%22%3E%3CmxGeometry%20x%3D%22124%22%20width%3D%22198%22%20height%3D%2222%22%20as%3D%22geometry%22%3E%3CmxRectangle%20width%3D%22198%22%20height%3D%2222%22%20as%3D%22alternateBounds%22%2F%3E%3C%2FmxGeometry%3E%3C%2FmxCell%3E%3CmxCell%20id%3D%2259%22%20value%3D%22USER_TEAM_TABLE%22%20style%3D%22shape%3Dtable%3BstartSize%3D25%3Bcontainer%3D1%3Bcollapsible%3D0%3BchildLayout%3DtableLayout%3BfixedRows%3D1%3BrowLines%3D1%3BfontStyle%3D1%3Balign%3Dcenter%3BresizeLast%3D1%3B%22%20vertex%3D%221%22%20parent%3D%221%22%3E%3CmxGeometry%20x%3D%22319%22%20y%3D%221446%22%20width%3D%22340%22%20height%3D%22135%22%20as%3D%22geometry%22%2F%3E%3C%2FmxCell%3E%3CmxCell%20id%3D%2260%22%20style%3D%22shape%3DtableRow%3Bhorizontal%3D0%3BstartSize%3D0%3BswimlaneHead%3D0%3BswimlaneBody%3D0%3BfillColor%3Dnone%3Bcollapsible%3D0%3BdropTarget%3D0%3Bpoints%3D%5B%5B0%2C0.5%5D%2C%5B1%2C0.5%5D%5D%3BportConstraint%3Deastwest%3Btop%3D0%3Bleft%3D0%3Bright%3D0%3Bbottom%3D0%3B%22%20vertex%3D%221%22%20parent%3D%2259%22%3E%3CmxGeometry%20y%3D%2225%22%20width%3D%22340%22%20height%3D%2222%22%20as%3D%22geometry%22%2F%3E%3C%2FmxCell%3E%3CmxCell%20id%3D%2261%22%20value%3D%22int%22%20style%3D%22shape%3DpartialRectangle%3Bconnectable%3D0%3BfillColor%3Dnone%3Btop%3D0%3Bleft%3D0%3Bbottom%3D0%3Bright%3D0%3Balign%3Dleft%3BspacingLeft%3D2%3Boverflow%3Dhidden%3BfontSize%3D11%3B%22%20vertex%3D%221%22%20parent%3D%2260%22%3E%3CmxGeometry%20width%3D%2236%22%20height%3D%2222%22%20as%3D%22geometry%22%3E%3CmxRectangle%20width%3D%2236%22%20height%3D%2222%22%20as%3D%22alternateBounds%22%2F%3E%3C%2FmxGeometry%3E%3C%2FmxCell%3E%3CmxCell%20id%3D%2262%22%20value%3D%22user_id%22%20style%3D%22shape%3DpartialRectangle%3Bconnectable%3D0%3BfillColor%3Dnone%3Btop%3D0%3Bleft%3D0%3Bbottom%3D0%3Bright%3D0%3Balign%3Dleft%3BspacingLeft%3D2%3Boverflow%3Dhidden%3BfontSize%3D11%3B%22%20vertex%3D%221%22%20parent%3D%2260%22%3E%3CmxGeometry%20x%3D%2236%22%20width%3D%2254%22%20height%3D%2222%22%20as%3D%22geometry%22%3E%3CmxRectangle%20width%3D%2254%22%20height%3D%2222%22%20as%3D%22alternateBounds%22%2F%3E%3C%2FmxGeometry%3E%3C%2FmxCell%3E%3CmxCell%20id%3D%2263%22%20value%3D%22FK%22%20style%3D%22shape%3DpartialRectangle%3Bconnectable%3D0%3BfillColor%3Dnone%3Btop%3D0%3Bleft%3D0%3Bbottom%3D0%3Bright%3D0%3Balign%3Dleft%3BspacingLeft%3D2%3Boverflow%3Dhidden%3BfontSize%3D11%3B%22%20vertex%3D%221%22%20parent%3D%2260%22%3E%3CmxGeometry%20x%3D%2290%22%20width%3D%2222%22%20height%3D%2222%22%20as%3D%22geometry%22%3E%3CmxRectangle%20width%3D%2222%22%20height%3D%2222%22%20as%3D%22alternateBounds%22%2F%3E%3C%2FmxGeometry%3E%3C%2FmxCell%3E%3CmxCell%20id%3D%2264%22%20value%3D%22Foreign%20Key%20referencing%20USER%22%20style%3D%22shape%3DpartialRectangle%3Bconnectable%3D0%3BfillColor%3Dnone%3Btop%3D0%3Bleft%3D0%3Bbottom%3D0%3Bright%3D0%3Balign%3Dleft%3BspacingLeft%3D2%3Boverflow%3Dhidden%3BfontSize%3D11%3B%22%20vertex%3D%221%22%20parent%3D%2260%22%3E%3CmxGeometry%20x%3D%22112%22%20width%3D%22228%22%20height%3D%2222%22%20as%3D%22geometry%22%3E%3CmxRectangle%20width%3D%22228%22%20height%3D%2222%22%20as%3D%22alternateBounds%22%2F%3E%3C%2FmxGeometry%3E%3C%2FmxCell%3E%3CmxCell%20id%3D%2265%22%20style%3D%22shape%3DtableRow%3Bhorizontal%3D0%3BstartSize%3D0%3BswimlaneHead%3D0%3BswimlaneBody%3D0%3BfillColor%3Dnone%3Bcollapsible%3D0%3BdropTarget%3D0%3Bpoints%3D%5B%5B0%2C0.5%5D%2C%5B1%2C0.5%5D%5D%3BportConstraint%3Deastwest%3Btop%3D0%3Bleft%3D0%3Bright%3D0%3Bbottom%3D0%3B%22%20vertex%3D%221%22%20parent%3D%2259%22%3E%3CmxGeometry%20y%3D%2247%22%20width%3D%22340%22%20height%3D%2222%22%20as%3D%22geometry%22%2F%3E%3C%2FmxCell%3E%3CmxCell%20id%3D%2266%22%20value%3D%22int%22%20style%3D%22shape%3DpartialRectangle%3Bconnectable%3D0%3BfillColor%3Dnone%3Btop%3D0%3Bleft%3D0%3Bbottom%3D0%3Bright%3D0%3Balign%3Dleft%3BspacingLeft%3D2%3Boverflow%3Dhidden%3BfontSize%3D11%3B%22%20vertex%3D%221%22%20parent%3D%2265%22%3E%3CmxGeometry%20width%3D%2236%22%20height%3D%2222%22%20as%3D%22geometry%22%3E%3CmxRectangle%20width%3D%2236%22%20height%3D%2222%22%20as%3D%22alternateBounds%22%2F%3E%3C%2FmxGeometry%3E%3C%2FmxCell%3E%3CmxCell%20id%3D%2267%22%20value%3D%22team_id%22%20style%3D%22shape%3DpartialRectangle%3Bconnectable%3D0%3BfillColor%3Dnone%3Btop%3D0%3Bleft%3D0%3Bbottom%3D0%3Bright%3D0%3Balign%3Dleft%3BspacingLeft%3D2%3Boverflow%3Dhidden%3BfontSize%3D11%3B%22%20vertex%3D%221%22%20parent%3D%2265%22%3E%3CmxGeometry%20x%3D%2236%22%20width%3D%2254%22%20height%3D%2222%22%20as%3D%22geometry%22%3E%3CmxRectangle%20width%3D%2254%22%20height%3D%2222%22%20as%3D%22alternateBounds%22%2F%3E%3C%2FmxGeometry%3E%3C%2FmxCell%3E%3CmxCell%20id%3D%2268%22%20value%3D%22FK%22%20style%3D%22shape%3DpartialRectangle%3Bconnectable%3D0%3BfillColor%3Dnone%3Btop%3D0%3Bleft%3D0%3Bbottom%3D0%3Bright%3D0%3Balign%3Dleft%3BspacingLeft%3D2%3Boverflow%3Dhidden%3BfontSize%3D11%3B%22%20vertex%3D%221%22%20parent%3D%2265%22%3E%3CmxGeometry%20x%3D%2290%22%20width%3D%2222%22%20height%3D%2222%22%20as%3D%22geometry%22%3E%3CmxRectangle%20width%3D%2222%22%20height%3D%2222%22%20as%3D%22alternateBounds%22%2F%3E%3C%2FmxGeometry%3E%3C%2FmxCell%3E%3CmxCell%20id%3D%2269%22%20value%3D%22Foreign%20Key%20referencing%20TEAM%22%20style%3D%22shape%3DpartialRectangle%3Bconnectable%3D0%3BfillColor%3Dnone%3Btop%3D0%3Bleft%3D0%3Bbottom%3D0%3Bright%3D0%3Balign%3Dleft%3BspacingLeft%3D2%3Boverflow%3Dhidden%3BfontSize%3D11%3B%22%20vertex%3D%221%22%20parent%3D%2265%22%3E%3CmxGeometry%20x%3D%22112%22%20width%3D%22228%22%20height%3D%2222%22%20as%3D%22geometry%22%3E%3CmxRectangle%20width%3D%22228%22%20height%3D%2222%22%20as%3D%22alternateBounds%22%2F%3E%3C%2FmxGeometry%3E%3C%2FmxCell%3E%3CmxCell%20id%3D%2270%22%20style%3D%22shape%3DtableRow%3Bhorizontal%3D0%3BstartSize%3D0%3BswimlaneHead%3D0%3BswimlaneBody%3D0%3BfillColor%3Dnone%3Bcollapsible%3D0%3BdropTarget%3D0%3Bpoints%3D%5B%5B0%2C0.5%5D%2C%5B1%2C0.5%5D%5D%3BportConstraint%3Deastwest%3Btop%3D0%3Bleft%3D0%3Bright%3D0%3Bbottom%3D0%3B%22%20vertex%3D%221%22%20parent%3D%2259%22%3E%3CmxGeometry%20y%3D%2269%22%20width%3D%22340%22%20height%3D%2222%22%20as%3D%22geometry%22%2F%3E%3C%2FmxCell%3E%3CmxCell%20id%3D%2271%22%20value%3D%22date%22%20style%3D%22shape%3DpartialRectangle%3Bconnectable%3D0%3BfillColor%3Dnone%3Btop%3D0%3Bleft%3D0%3Bbottom%3D0%3Bright%3D0%3Balign%3Dleft%3BspacingLeft%3D2%3Boverflow%3Dhidden%3BfontSize%3D11%3B%22%20vertex%3D%221%22%20parent%3D%2270%22%3E%3CmxGeometry%20width%3D%2236%22%20height%3D%2222%22%20as%3D%22geometry%22%3E%3CmxRectangle%20width%3D%2236%22%20height%3D%2222%22%20as%3D%22alternateBounds%22%2F%3E%3C%2FmxGeometry%3E%3C%2FmxCell%3E%3CmxCell%20id%3D%2272%22%20value%3D%22joined_at%22%20style%3D%22shape%3DpartialRectangle%3Bconnectable%3D0%3BfillColor%3Dnone%3Btop%3D0%3Bleft%3D0%3Bbottom%3D0%3Bright%3D0%3Balign%3Dleft%3BspacingLeft%3D2%3Boverflow%3Dhidden%3BfontSize%3D11%3B%22%20vertex%3D%221%22%20parent%3D%2270%22%3E%3CmxGeometry%20x%3D%2236%22%20width%3D%2254%22%20height%3D%2222%22%20as%3D%22geometry%22%3E%3CmxRectangle%20width%3D%2254%22%20height%3D%2222%22%20as%3D%22alternateBounds%22%2F%3E%3C%2FmxGeometry%3E%3C%2FmxCell%3E%3CmxCell%20id%3D%2273%22%20value%3D%22%22%20style%3D%22shape%3DpartialRectangle%3Bconnectable%3D0%3BfillColor%3Dnone%3Btop%3D0%3Bleft%3D0%3Bbottom%3D0%3Bright%3D0%3Balign%3Dleft%3BspacingLeft%3D2%3Boverflow%3Dhidden%3BfontSize%3D11%3B%22%20vertex%3D%221%22%20parent%3D%2270%22%3E%3CmxGeometry%20x%3D%2290%22%20width%3D%2222%22%20height%3D%2222%22%20as%3D%22geometry%22%3E%3CmxRectangle%20width%3D%2222%22%20height%3D%2222%22%20as%3D%22alternateBounds%22%2F%3E%3C%2FmxGeometry%3E%3C%2FmxCell%3E%3CmxCell%20id%3D%2274%22%20value%3D%22Date%20the%20user%20joined%20the%20team%22%20style%3D%22shape%3DpartialRectangle%3Bconnectable%3D0%3BfillColor%3Dnone%3Btop%3D0%3Bleft%3D0%3Bbottom%3D0%3Bright%3D0%3Balign%3Dleft%3BspacingLeft%3D2%3Boverflow%3Dhidden%3BfontSize%3D11%3B%22%20vertex%3D%221%22%20parent%3D%2270%22%3E%3CmxGeometry%20x%3D%22112%22%20width%3D%22228%22%20height%3D%2222%22%20as%3D%22geometry%22%3E%3CmxRectangle%20width%3D%22228%22%20height%3D%2222%22%20as%3D%22alternateBounds%22%2F%3E%3C%2FmxGeometry%3E%3C%2FmxCell%3E%3CmxCell%20id%3D%2275%22%20style%3D%22shape%3DtableRow%3Bhorizontal%3D0%3BstartSize%3D0%3BswimlaneHead%3D0%3BswimlaneBody%3D0%3BfillColor%3Dnone%3Bcollapsible%3D0%3BdropTarget%3D0%3Bpoints%3D%5B%5B0%2C0.5%5D%2C%5B1%2C0.5%5D%5D%3BportConstraint%3Deastwest%3Btop%3D0%3Bleft%3D0%3Bright%3D0%3Bbottom%3D0%3B%22%20vertex%3D%221%22%20parent%3D%2259%22%3E%3CmxGeometry%20y%3D%2291%22%20width%3D%22340%22%20height%3D%2222%22%20as%3D%22geometry%22%2F%3E%3C%2FmxCell%3E%3CmxCell%20id%3D%2276%22%20value%3D%22date%22%20style%3D%22shape%3DpartialRectangle%3Bconnectable%3D0%3BfillColor%3Dnone%3Btop%3D0%3Bleft%3D0%3Bbottom%3D0%3Bright%3D0%3Balign%3Dleft%3BspacingLeft%3D2%3Boverflow%3Dhidden%3BfontSize%3D11%3B%22%20vertex%3D%221%22%20parent%3D%2275%22%3E%3CmxGeometry%20width%3D%2236%22%20height%3D%2222%22%20as%3D%22geometry%22%3E%3CmxRectangle%20width%3D%2236%22%20height%3D%2222%22%20as%3D%22alternateBounds%22%2F%3E%3C%2FmxGeometry%3E%3C%2FmxCell%3E%3CmxCell%20id%3D%2277%22%20value%3D%22left_at%22%20style%3D%22shape%3DpartialRectangle%3Bconnectable%3D0%3BfillColor%3Dnone%3Btop%3D0%3Bleft%3D0%3Bbottom%3D0%3Bright%3D0%3Balign%3Dleft%3BspacingLeft%3D2%3Boverflow%3Dhidden%3BfontSize%3D11%3B%22%20vertex%3D%221%22%20parent%3D%2275%22%3E%3CmxGeometry%20x%3D%2236%22%20width%3D%2254%22%20height%3D%2222%22%20as%3D%22geometry%22%3E%3CmxRectangle%20width%3D%2254%22%20height%3D%2222%22%20as%3D%22alternateBounds%22%2F%3E%3C%2FmxGeometry%3E%3C%2FmxCell%3E%3CmxCell%20id%3D%2278%22%20value%3D%22%22%20style%3D%22shape%3DpartialRectangle%3Bconnectable%3D0%3BfillColor%3Dnone%3Btop%3D0%3Bleft%3D0%3Bbottom%3D0%3Bright%3D0%3Balign%3Dleft%3BspacingLeft%3D2%3Boverflow%3Dhidden%3BfontSize%3D11%3B%22%20vertex%3D%221%22%20parent%3D%2275%22%3E%3CmxGeometry%20x%3D%2290%22%20width%3D%2222%22%20height%3D%2222%22%20as%3D%22geometry%22%3E%3CmxRectangle%20width%3D%2222%22%20height%3D%2222%22%20as%3D%22alternateBounds%22%2F%3E%3C%2FmxGeometry%3E%3C%2FmxCell%3E%3CmxCell%20id%3D%2279%22%20value%3D%22Date%20the%20user%20left%20the%20team%20(nullable)%22%20style%3D%22shape%3DpartialRectangle%3Bconnectable%3D0%3BfillColor%3Dnone%3Btop%3D0%3Bleft%3D0%3Bbottom%3D0%3Bright%3D0%3Balign%3Dleft%3BspacingLeft%3D2%3Boverflow%3Dhidden%3BfontSize%3D11%3B%22%20vertex%3D%221%22%20parent%3D%2275%22%3E%3CmxGeometry%20x%3D%22112%22%20width%3D%22228%22%20height%3D%2222%22%20as%3D%22geometry%22%3E%3CmxRectangle%20width%3D%22228%22%20height%3D%2222%22%20as%3D%22alternateBounds%22%2F%3E%3C%2FmxGeometry%3E%3C%2FmxCell%3E%3CmxCell%20id%3D%2280%22%20style%3D%22shape%3DtableRow%3Bhorizontal%3D0%3BstartSize%3D0%3BswimlaneHead%3D0%3BswimlaneBody%3D0%3BfillColor%3Dnone%3Bcollapsible%3D0%3BdropTarget%3D0%3Bpoints%3D%5B%5B0%2C0.5%5D%2C%5B1%2C0.5%5D%5D%3BportConstraint%3Deastwest%3Btop%3D0%3Bleft%3D0%3Bright%3D0%3Bbottom%3D0%3B%22%20vertex%3D%221%22%20parent%3D%2259%22%3E%3CmxGeometry%20y%3D%22113%22%20width%3D%22340%22%20height%3D%2222%22%20as%3D%22geometry%22%2F%3E%3C%2FmxCell%3E%3CmxCell%20id%3D%2281%22%20value%3D%22string%22%20style%3D%22shape%3DpartialRectangle%3Bconnectable%3D0%3BfillColor%3Dnone%3Btop%3D0%3Bleft%3D0%3Bbottom%3D0%3Bright%3D0%3Balign%3Dleft%3BspacingLeft%3D2%3Boverflow%3Dhidden%3BfontSize%3D11%3B%22%20vertex%3D%221%22%20parent%3D%2280%22%3E%3CmxGeometry%20width%3D%2236%22%20height%3D%2222%22%20as%3D%22geometry%22%3E%3CmxRectangle%20width%3D%2236%22%20height%3D%2222%22%20as%3D%22alternateBounds%22%2F%3E%3C%2FmxGeometry%3E%3C%2FmxCell%3E%3CmxCell%20id%3D%2282%22%20value%3D%22role%22%20style%3D%22shape%3DpartialRectangle%3Bconnectable%3D0%3BfillColor%3Dnone%3Btop%3D0%3Bleft%3D0%3Bbottom%3D0%3Bright%3D0%3Balign%3Dleft%3BspacingLeft%3D2%3Boverflow%3Dhidden%3BfontSize%3D11%3B%22%20vertex%3D%221%22%20parent%3D%2280%22%3E%3CmxGeometry%20x%3D%2236%22%20width%3D%2254%22%20height%3D%2222%22%20as%3D%22geometry%22%3E%3CmxRectangle%20width%3D%2254%22%20height%3D%2222%22%20as%3D%22alternateBounds%22%2F%3E%3C%2FmxGeometry%3E%3C%2FmxCell%3E%3CmxCell%20id%3D%2283%22%20value%3D%22%22%20style%3D%22shape%3DpartialRectangle%3Bconnectable%3D0%3BfillColor%3Dnone%3Btop%3D0%3Bleft%3D0%3Bbottom%3D0%3Bright%3D0%3Balign%3Dleft%3BspacingLeft%3D2%3Boverflow%3Dhidden%3BfontSize%3D11%3B%22%20vertex%3D%221%22%20parent%3D%2280%22%3E%3CmxGeometry%20x%3D%2290%22%20width%3D%2222%22%20height%3D%2222%22%20as%3D%22geometry%22%3E%3CmxRectangle%20width%3D%2222%22%20height%3D%2222%22%20as%3D%22alternateBounds%22%2F%3E%3C%2FmxGeometry%3E%3C%2FmxCell%3E%3CmxCell%20id%3D%2284%22%20value%3D%22Role%20of%20the%20user%20in%20the%20team%22%20style%3D%22shape%3DpartialRectangle%3Bconnectable%3D0%3BfillColor%3Dnone%3Btop%3D0%3Bleft%3D0%3Bbottom%3D0%3Bright%3D0%3Balign%3Dleft%3BspacingLeft%3D2%3Boverflow%3Dhidden%3BfontSize%3D11%3B%22%20vertex%3D%221%22%20parent%3D%2280%22%3E%3CmxGeometry%20x%3D%22112%22%20width%3D%22228%22%20height%3D%2222%22%20as%3D%22geometry%22%3E%3CmxRectangle%20width%3D%22228%22%20height%3D%2222%22%20as%3D%22alternateBounds%22%2F%3E%3C%2FmxGeometry%3E%3C%2FmxCell%3E%3CmxCell%20id%3D%2285%22%20value%3D%22has%22%20style%3D%22curved%3D1%3BstartArrow%3DERmandOne%3BstartSize%3D10%3B%3BendArrow%3DERzeroToMany%3BendSize%3D10%3B%3BexitX%3D0.46%3BexitY%3D1%3BentryX%3D0.11%3BentryY%3D0%3Brounded%3D0%3B%22%20edge%3D%221%22%20source%3D%222%22%20target%3D%2259%22%20parent%3D%221%22%3E%3CmxGeometry%20relative%3D%221%22%20as%3D%22geometry%22%3E%3CArray%20as%3D%22points%22%3E%3CmxPoint%20x%3D%22276%22%20y%3D%221396%22%2F%3E%3C%2FArray%3E%3C%2FmxGeometry%3E%3C%2FmxCell%3E%3CmxCell%20id%3D%2286%22%20value%3D%22includes%22%20style%3D%22curved%3D1%3BstartArrow%3DERmandOne%3BstartSize%3D10%3B%3BendArrow%3DERzeroToMany%3BendSize%3D10%3B%3BexitX%3D0.46%3BexitY%3D1%3BentryX%3D0.75%3BentryY%3D0%3Brounded%3D0%3B%22%20edge%3D%221%22%20source%3D%2233%22%20target%3D%2259%22%20parent%3D%221%22%3E%3CmxGeometry%20relative%3D%221%22%20as%3D%22geometry%22%3E%3CArray%20as%3D%22points%22%3E%3CmxPoint%20x%3D%22656%22%20y%3D%221396%22%2F%3E%3C%2FArray%3E%3C%2FmxGeometry%3E%3C%2FmxCell%3E%3C%2Froot%3E%3C%2FmxGraphModel%3E&lt;/span&gt;&lt;span style=&quot;color: rgba(0, 0, 0, 0); font-family: monospace; font-size: 0px; text-align: start; text-wrap-mode: nowrap;&quot;&gt;%3CmxGraphModel%3E%3Croot%3E%3CmxCell%20id%3D%220%22%2F%3E%3CmxCell%20id%3D%221%22%20parent%3D%220%22%2F%3E%3CmxCell%20id%3D%222%22%20value%3D%22USER%22%20style%3D%22shape%3Dtable%3BstartSize%3D25%3Bcontainer%3D1%3Bcollapsible%3D0%3BchildLayout%3DtableLayout%3BfixedRows%3D1%3BrowLines%3D1%3BfontStyle%3D1%3Balign%3Dcenter%3BresizeLast%3D1%3B%22%20vertex%3D%221%22%20parent%3D%221%22%3E%3CmxGeometry%20x%3D%22143%22%20y%3D%221190%22%20width%3D%22286%22%20height%3D%22157%22%20as%3D%22geometry%22%2F%3E%3C%2FmxCell%3E%3CmxCell%20id%3D%223%22%20style%3D%22shape%3DtableRow%3Bhorizontal%3D0%3BstartSize%3D0%3BswimlaneHead%3D0%3BswimlaneBody%3D0%3BfillColor%3Dnone%3Bcollapsible%3D0%3BdropTarget%3D0%3Bpoints%3D%5B%5B0%2C0.5%5D%2C%5B1%2C0.5%5D%5D%3BportConstraint%3Deastwest%3Btop%3D0%3Bleft%3D0%3Bright%3D0%3Bbottom%3D0%3B%22%20vertex%3D%221%22%20parent%3D%222%22%3E%3CmxGeometry%20y%3D%2225%22%20width%3D%22286%22%20height%3D%2222%22%20as%3D%22geometry%22%2F%3E%3C%2FmxCell%3E%3CmxCell%20id%3D%224%22%20value%3D%22int%22%20style%3D%22shape%3DpartialRectangle%3Bconnectable%3D0%3BfillColor%3Dnone%3Btop%3D0%3Bleft%3D0%3Bbottom%3D0%3Bright%3D0%3Balign%3Dleft%3BspacingLeft%3D2%3Boverflow%3Dhidden%3BfontSize%3D11%3B%22%20vertex%3D%221%22%20parent%3D%223%22%3E%3CmxGeometry%20width%3D%2236%22%20height%3D%2222%22%20as%3D%22geometry%22%3E%3CmxRectangle%20width%3D%2236%22%20height%3D%2222%22%20as%3D%22alternateBounds%22%2F%3E%3C%2FmxGeometry%3E%3C%2FmxCell%3E%3CmxCell%20id%3D%225%22%20value%3D%22id%22%20style%3D%22shape%3DpartialRectangle%3Bconnectable%3D0%3BfillColor%3Dnone%3Btop%3D0%3Bleft%3D0%3Bbottom%3D0%3Bright%3D0%3Balign%3Dleft%3BspacingLeft%3D2%3Boverflow%3Dhidden%3BfontSize%3D11%3B%22%20vertex%3D%221%22%20parent%3D%223%22%3E%3CmxGeometry%20x%3D%2236%22%20width%3D%2260%22%20height%3D%2222%22%20as%3D%22geometry%22%3E%3CmxRectangle%20width%3D%2260%22%20height%3D%2222%22%20as%3D%22alternateBounds%22%2F%3E%3C%2FmxGeometry%3E%3C%2FmxCell%3E%3CmxCell%20id%3D%226%22%20value%3D%22PK%22%20style%3D%22shape%3DpartialRectangle%3Bconnectable%3D0%3BfillColor%3Dnone%3Btop%3D0%3Bleft%3D0%3Bbottom%3D0%3Bright%3D0%3Balign%3Dleft%3BspacingLeft%3D2%3Boverflow%3Dhidden%3BfontSize%3D11%3B%22%20vertex%3D%221%22%20parent%3D%223%22%3E%3CmxGeometry%20x%3D%2296%22%20width%3D%2222%22%20height%3D%2222%22%20as%3D%22geometry%22%3E%3CmxRectangle%20width%3D%2222%22%20height%3D%2222%22%20as%3D%22alternateBounds%22%2F%3E%3C%2FmxGeometry%3E%3C%2FmxCell%3E%3CmxCell%20id%3D%227%22%20value%3D%22Primary%20Key%22%20style%3D%22shape%3DpartialRectangle%3Bconnectable%3D0%3BfillColor%3Dnone%3Btop%3D0%3Bleft%3D0%3Bbottom%3D0%3Bright%3D0%3Balign%3Dleft%3BspacingLeft%3D2%3Boverflow%3Dhidden%3BfontSize%3D11%3B%22%20vertex%3D%221%22%20parent%3D%223%22%3E%3CmxGeometry%20x%3D%22118%22%20width%3D%22168%22%20height%3D%2222%22%20as%3D%22geometry%22%3E%3CmxRectangle%20width%3D%22168%22%20height%3D%2222%22%20as%3D%22alternateBounds%22%2F%3E%3C%2FmxGeometry%3E%3C%2FmxCell%3E%3CmxCell%20id%3D%228%22%20style%3D%22shape%3DtableRow%3Bhorizontal%3D0%3BstartSize%3D0%3BswimlaneHead%3D0%3BswimlaneBody%3D0%3BfillColor%3Dnone%3Bcollapsible%3D0%3BdropTarget%3D0%3Bpoints%3D%5B%5B0%2C0.5%5D%2C%5B1%2C0.5%5D%5D%3BportConstraint%3Deastwest%3Btop%3D0%3Bleft%3D0%3Bright%3D0%3Bbottom%3D0%3B%22%20vertex%3D%221%22%20parent%3D%222%22%3E%3CmxGeometry%20y%3D%2247%22%20width%3D%22286%22%20height%3D%2222%22%20as%3D%22geometry%22%2F%3E%3C%2FmxCell%3E%3CmxCell%20id%3D%229%22%20value%3D%22string%22%20style%3D%22shape%3DpartialRectangle%3Bconnectable%3D0%3BfillColor%3Dnone%3Btop%3D0%3Bleft%3D0%3Bbottom%3D0%3Bright%3D0%3Balign%3Dleft%3BspacingLeft%3D2%3Boverflow%3Dhidden%3BfontSize%3D11%3B%22%20vertex%3D%221%22%20parent%3D%228%22%3E%3CmxGeometry%20width%3D%2236%22%20height%3D%2222%22%20as%3D%22geometry%22%3E%3CmxRectangle%20width%3D%2236%22%20height%3D%2222%22%20as%3D%22alternateBounds%22%2F%3E%3C%2FmxGeometry%3E%3C%2FmxCell%3E%3CmxCell%20id%3D%2210%22%20value%3D%22username%22%20style%3D%22shape%3DpartialRectangle%3Bconnectable%3D0%3BfillColor%3Dnone%3Btop%3D0%3Bleft%3D0%3Bbottom%3D0%3Bright%3D0%3Balign%3Dleft%3BspacingLeft%3D2%3Boverflow%3Dhidden%3BfontSize%3D11%3B%22%20vertex%3D%221%22%20parent%3D%228%22%3E%3CmxGeometry%20x%3D%2236%22%20width%3D%2260%22%20height%3D%2222%22%20as%3D%22geometry%22%3E%3CmxRectangle%20width%3D%2260%22%20height%3D%2222%22%20as%3D%22alternateBounds%22%2F%3E%3C%2FmxGeometry%3E%3C%2FmxCell%3E%3CmxCell%20id%3D%2211%22%20value%3D%22%22%20style%3D%22shape%3DpartialRectangle%3Bconnectable%3D0%3BfillColor%3Dnone%3Btop%3D0%3Bleft%3D0%3Bbottom%3D0%3Bright%3D0%3Balign%3Dleft%3BspacingLeft%3D2%3Boverflow%3Dhidden%3BfontSize%3D11%3B%22%20vertex%3D%221%22%20parent%3D%228%22%3E%3CmxGeometry%20x%3D%2296%22%20width%3D%2222%22%20height%3D%2222%22%20as%3D%22geometry%22%3E%3CmxRectangle%20width%3D%2222%22%20height%3D%2222%22%20as%3D%22alternateBounds%22%2F%3E%3C%2FmxGeometry%3E%3C%2FmxCell%3E%3CmxCell%20id%3D%2212%22%20value%3D%22Unique%20username%20for%20the%20user%22%20style%3D%22shape%3DpartialRectangle%3Bconnectable%3D0%3BfillColor%3Dnone%3Btop%3D0%3Bleft%3D0%3Bbottom%3D0%3Bright%3D0%3Balign%3Dleft%3BspacingLeft%3D2%3Boverflow%3Dhidden%3BfontSize%3D11%3B%22%20vertex%3D%221%22%20parent%3D%228%22%3E%3CmxGeometry%20x%3D%22118%22%20width%3D%22168%22%20height%3D%2222%22%20as%3D%22geometry%22%3E%3CmxRectangle%20width%3D%22168%22%20height%3D%2222%22%20as%3D%22alternateBounds%22%2F%3E%3C%2FmxGeometry%3E%3C%2FmxCell%3E%3CmxCell%20id%3D%2213%22%20style%3D%22shape%3DtableRow%3Bhorizontal%3D0%3BstartSize%3D0%3BswimlaneHead%3D0%3BswimlaneBody%3D0%3BfillColor%3Dnone%3Bcollapsible%3D0%3BdropTarget%3D0%3Bpoints%3D%5B%5B0%2C0.5%5D%2C%5B1%2C0.5%5D%5D%3BportConstraint%3Deastwest%3Btop%3D0%3Bleft%3D0%3Bright%3D0%3Bbottom%3D0%3B%22%20vertex%3D%221%22%20parent%3D%222%22%3E%3CmxGeometry%20y%3D%2269%22%20width%3D%22286%22%20height%3D%2222%22%20as%3D%22geometry%22%2F%3E%3C%2FmxCell%3E%3CmxCell%20id%3D%2214%22%20value%3D%22string%22%20style%3D%22shape%3DpartialRectangle%3Bconnectable%3D0%3BfillColor%3Dnone%3Btop%3D0%3Bleft%3D0%3Bbottom%3D0%3Bright%3D0%3Balign%3Dleft%3BspacingLeft%3D2%3Boverflow%3Dhidden%3BfontSize%3D11%3B%22%20vertex%3D%221%22%20parent%3D%2213%22%3E%3CmxGeometry%20width%3D%2236%22%20height%3D%2222%22%20as%3D%22geometry%22%3E%3CmxRectangle%20width%3D%2236%22%20height%3D%2222%22%20as%3D%22alternateBounds%22%2F%3E%3C%2FmxGeometry%3E%3C%2FmxCell%3E%3CmxCell%20id%3D%2215%22%20value%3D%22email%22%20style%3D%22shape%3DpartialRectangle%3Bconnectable%3D0%3BfillColor%3Dnone%3Btop%3D0%3Bleft%3D0%3Bbottom%3D0%3Bright%3D0%3Balign%3Dleft%3BspacingLeft%3D2%3Boverflow%3Dhidden%3BfontSize%3D11%3B%22%20vertex%3D%221%22%20parent%3D%2213%22%3E%3CmxGeometry%20x%3D%2236%22%20width%3D%2260%22%20height%3D%2222%22%20as%3D%22geometry%22%3E%3CmxRectangle%20width%3D%2260%22%20height%3D%2222%22%20as%3D%22alternateBounds%22%2F%3E%3C%2FmxGeometry%3E%3C%2FmxCell%3E%3CmxCell%20id%3D%2216%22%20value%3D%22%22%20style%3D%22shape%3DpartialRectangle%3Bconnectable%3D0%3BfillColor%3Dnone%3Btop%3D0%3Bleft%3D0%3Bbottom%3D0%3Bright%3D0%3Balign%3Dleft%3BspacingLeft%3D2%3Boverflow%3Dhidden%3BfontSize%3D11%3B%22%20vertex%3D%221%22%20parent%3D%2213%22%3E%3CmxGeometry%20x%3D%2296%22%20width%3D%2222%22%20height%3D%2222%22%20as%3D%22geometry%22%3E%3CmxRectangle%20width%3D%2222%22%20height%3D%2222%22%20as%3D%22alternateBounds%22%2F%3E%3C%2FmxGeometry%3E%3C%2FmxCell%3E%3CmxCell%20id%3D%2217%22%20value%3D%22User%20email%20address%22%20style%3D%22shape%3DpartialRectangle%3Bconnectable%3D0%3BfillColor%3Dnone%3Btop%3D0%3Bleft%3D0%3Bbottom%3D0%3Bright%3D0%3Balign%3Dleft%3BspacingLeft%3D2%3Boverflow%3Dhidden%3BfontSize%3D11%3B%22%20vertex%3D%221%22%20parent%3D%2213%22%3E%3CmxGeometry%20x%3D%22118%22%20width%3D%22168%22%20height%3D%2222%22%20as%3D%22geometry%22%3E%3CmxRectangle%20width%3D%22168%22%20height%3D%2222%22%20as%3D%22alternateBounds%22%2F%3E%3C%2FmxGeometry%3E%3C%2FmxCell%3E%3CmxCell%20id%3D%2218%22%20style%3D%22shape%3DtableRow%3Bhorizontal%3D0%3BstartSize%3D0%3BswimlaneHead%3D0%3BswimlaneBody%3D0%3BfillColor%3Dnone%3Bcollapsible%3D0%3BdropTarget%3D0%3Bpoints%3D%5B%5B0%2C0.5%5D%2C%5B1%2C0.5%5D%5D%3BportConstraint%3Deastwest%3Btop%3D0%3Bleft%3D0%3Bright%3D0%3Bbottom%3D0%3B%22%20vertex%3D%221%22%20parent%3D%222%22%3E%3CmxGeometry%20y%3D%2291%22%20width%3D%22286%22%20height%3D%2222%22%20as%3D%22geometry%22%2F%3E%3C%2FmxCell%3E%3CmxCell%20id%3D%2219%22%20value%3D%22string%22%20style%3D%22shape%3DpartialRectangle%3Bconnectable%3D0%3BfillColor%3Dnone%3Btop%3D0%3Bleft%3D0%3Bbottom%3D0%3Bright%3D0%3Balign%3Dleft%3BspacingLeft%3D2%3Boverflow%3Dhidden%3BfontSize%3D11%3B%22%20vertex%3D%221%22%20parent%3D%2218%22%3E%3CmxGeometry%20width%3D%2236%22%20height%3D%2222%22%20as%3D%22geometry%22%3E%3CmxRectangle%20width%3D%2236%22%20height%3D%2222%22%20as%3D%22alternateBounds%22%2F%3E%3C%2FmxGeometry%3E%3C%2FmxCell%3E%3CmxCell%20id%3D%2220%22%20value%3D%22password%22%20style%3D%22shape%3DpartialRectangle%3Bconnectable%3D0%3BfillColor%3Dnone%3Btop%3D0%3Bleft%3D0%3Bbottom%3D0%3Bright%3D0%3Balign%3Dleft%3BspacingLeft%3D2%3Boverflow%3Dhidden%3BfontSize%3D11%3B%22%20vertex%3D%221%22%20parent%3D%2218%22%3E%3CmxGeometry%20x%3D%2236%22%20width%3D%2260%22%20height%3D%2222%22%20as%3D%22geometry%22%3E%3CmxRectangle%20width%3D%2260%22%20height%3D%2222%22%20as%3D%22alternateBounds%22%2F%3E%3C%2FmxGeometry%3E%3C%2FmxCell%3E%3CmxCell%20id%3D%2221%22%20value%3D%22%22%20style%3D%22shape%3DpartialRectangle%3Bconnectable%3D0%3BfillColor%3Dnone%3Btop%3D0%3Bleft%3D0%3Bbottom%3D0%3Bright%3D0%3Balign%3Dleft%3BspacingLeft%3D2%3Boverflow%3Dhidden%3BfontSize%3D11%3B%22%20vertex%3D%221%22%20parent%3D%2218%22%3E%3CmxGeometry%20x%3D%2296%22%20width%3D%2222%22%20height%3D%2222%22%20as%3D%22geometry%22%3E%3CmxRectangle%20width%3D%2222%22%20height%3D%2222%22%20as%3D%22alternateBounds%22%2F%3E%3C%2FmxGeometry%3E%3C%2FmxCell%3E%3CmxCell%20id%3D%2222%22%20value%3D%22Hashed%20user%20password%22%20style%3D%22shape%3DpartialRectangle%3Bconnectable%3D0%3BfillColor%3Dnone%3Btop%3D0%3Bleft%3D0%3Bbottom%3D0%3Bright%3D0%3Balign%3Dleft%3BspacingLeft%3D2%3Boverflow%3Dhidden%3BfontSize%3D11%3B%22%20vertex%3D%221%22%20parent%3D%2218%22%3E%3CmxGeometry%20x%3D%22118%22%20width%3D%22168%22%20height%3D%2222%22%20as%3D%22geometry%22%3E%3CmxRectangle%20width%3D%22168%22%20height%3D%2222%22%20as%3D%22alternateBounds%22%2F%3E%3C%2FmxGeometry%3E%3C%2FmxCell%3E%3CmxCell%20id%3D%2223%22%20style%3D%22shape%3DtableRow%3Bhorizontal%3D0%3BstartSize%3D0%3BswimlaneHead%3D0%3BswimlaneBody%3D0%3BfillColor%3Dnone%3Bcollapsible%3D0%3BdropTarget%3D0%3Bpoints%3D%5B%5B0%2C0.5%5D%2C%5B1%2C0.5%5D%5D%3BportConstraint%3Deastwest%3Btop%3D0%3Bleft%3D0%3Bright%3D0%3Bbottom%3D0%3B%22%20vertex%3D%221%22%20parent%3D%222%22%3E%3CmxGeometry%20y%3D%22113%22%20width%3D%22286%22%20height%3D%2222%22%20as%3D%22geometry%22%2F%3E%3C%2FmxCell%3E%3CmxCell%20id%3D%2224%22%20value%3D%22date%22%20style%3D%22shape%3DpartialRectangle%3Bconnectable%3D0%3BfillColor%3Dnone%3Btop%3D0%3Bleft%3D0%3Bbottom%3D0%3Bright%3D0%3Balign%3Dleft%3BspacingLeft%3D2%3Boverflow%3Dhidden%3BfontSize%3D11%3B%22%20vertex%3D%221%22%20parent%3D%2223%22%3E%3CmxGeometry%20width%3D%2236%22%20height%3D%2222%22%20as%3D%22geometry%22%3E%3CmxRectangle%20width%3D%2236%22%20height%3D%2222%22%20as%3D%22alternateBounds%22%2F%3E%3C%2FmxGeometry%3E%3C%2FmxCell%3E%3CmxCell%20id%3D%2225%22%20value%3D%22created_at%22%20style%3D%22shape%3DpartialRectangle%3Bconnectable%3D0%3BfillColor%3Dnone%3Btop%3D0%3Bleft%3D0%3Bbottom%3D0%3Bright%3D0%3Balign%3Dleft%3BspacingLeft%3D2%3Boverflow%3Dhidden%3BfontSize%3D11%3B%22%20vertex%3D%221%22%20parent%3D%2223%22%3E%3CmxGeometry%20x%3D%2236%22%20width%3D%2260%22%20height%3D%2222%22%20as%3D%22geometry%22%3E%3CmxRectangle%20width%3D%2260%22%20height%3D%2222%22%20as%3D%22alternateBounds%22%2F%3E%3C%2FmxGeometry%3E%3C%2FmxCell%3E%3CmxCell%20id%3D%2226%22%20value%3D%22%22%20style%3D%22shape%3DpartialRectangle%3Bconnectable%3D0%3BfillColor%3Dnone%3Btop%3D0%3Bleft%3D0%3Bbottom%3D0%3Bright%3D0%3Balign%3Dleft%3BspacingLeft%3D2%3Boverflow%3Dhidden%3BfontSize%3D11%3B%22%20vertex%3D%221%22%20parent%3D%2223%22%3E%3CmxGeometry%20x%3D%2296%22%20width%3D%2222%22%20height%3D%2222%22%20as%3D%22geometry%22%3E%3CmxRectangle%20width%3D%2222%22%20height%3D%2222%22%20as%3D%22alternateBounds%22%2F%3E%3C%2FmxGeometry%3E%3C%2FmxCell%3E%3CmxCell%20id%3D%2227%22%20value%3D%22Account%20creation%20date%22%20style%3D%22shape%3DpartialRectangle%3Bconnectable%3D0%3BfillColor%3Dnone%3Btop%3D0%3Bleft%3D0%3Bbottom%3D0%3Bright%3D0%3Balign%3Dleft%3BspacingLeft%3D2%3Boverflow%3Dhidden%3BfontSize%3D11%3B%22%20vertex%3D%221%22%20parent%3D%2223%22%3E%3CmxGeometry%20x%3D%22118%22%20width%3D%22168%22%20height%3D%2222%22%20as%3D%22geometry%22%3E%3CmxRectangle%20width%3D%22168%22%20height%3D%2222%22%20as%3D%22alternateBounds%22%2F%3E%3C%2FmxGeometry%3E%3C%2FmxCell%3E%3CmxCell%20id%3D%2228%22%20style%3D%22shape%3DtableRow%3Bhorizontal%3D0%3BstartSize%3D0%3BswimlaneHead%3D0%3BswimlaneBody%3D0%3BfillColor%3Dnone%3Bcollapsible%3D0%3BdropTarget%3D0%3Bpoints%3D%5B%5B0%2C0.5%5D%2C%5B1%2C0.5%5D%5D%3BportConstraint%3Deastwest%3Btop%3D0%3Bleft%3D0%3Bright%3D0%3Bbottom%3D0%3B%22%20vertex%3D%221%22%20parent%3D%222%22%3E%3CmxGeometry%20y%3D%22135%22%20width%3D%22286%22%20height%3D%2222%22%20as%3D%22geometry%22%2F%3E%3C%2FmxCell%3E%3CmxCell%20id%3D%2229%22%20value%3D%22date%22%20style%3D%22shape%3DpartialRectangle%3Bconnectable%3D0%3BfillColor%3Dnone%3Btop%3D0%3Bleft%3D0%3Bbottom%3D0%3Bright%3D0%3Balign%3Dleft%3BspacingLeft%3D2%3Boverflow%3Dhidden%3BfontSize%3D11%3B%22%20vertex%3D%221%22%20parent%3D%2228%22%3E%3CmxGeometry%20width%3D%2236%22%20height%3D%2222%22%20as%3D%22geometry%22%3E%3CmxRectangle%20width%3D%2236%22%20height%3D%2222%22%20as%3D%22alternateBounds%22%2F%3E%3C%2FmxGeometry%3E%3C%2FmxCell%3E%3CmxCell%20id%3D%2230%22%20value%3D%22updated_at%22%20style%3D%22shape%3DpartialRectangle%3Bconnectable%3D0%3BfillColor%3Dnone%3Btop%3D0%3Bleft%3D0%3Bbottom%3D0%3Bright%3D0%3Balign%3Dleft%3BspacingLeft%3D2%3Boverflow%3Dhidden%3BfontSize%3D11%3B%22%20vertex%3D%221%22%20parent%3D%2228%22%3E%3CmxGeometry%20x%3D%2236%22%20width%3D%2260%22%20height%3D%2222%22%20as%3D%22geometry%22%3E%3CmxRectangle%20width%3D%2260%22%20height%3D%2222%22%20as%3D%22alternateBounds%22%2F%3E%3C%2FmxGeometry%3E%3C%2FmxCell%3E%3CmxCell%20id%3D%2231%22%20value%3D%22%22%20style%3D%22shape%3DpartialRectangle%3Bconnectable%3D0%3BfillColor%3Dnone%3Btop%3D0%3Bleft%3D0%3Bbottom%3D0%3Bright%3D0%3Balign%3Dleft%3BspacingLeft%3D2%3Boverflow%3Dhidden%3BfontSize%3D11%3B%22%20vertex%3D%221%22%20parent%3D%2228%22%3E%3CmxGeometry%20x%3D%2296%22%20width%3D%2222%22%20height%3D%2222%22%20as%3D%22geometry%22%3E%3CmxRectangle%20width%3D%2222%22%20height%3D%2222%22%20as%3D%22alternateBounds%22%2F%3E%3C%2FmxGeometry%3E%3C%2FmxCell%3E%3CmxCell%20id%3D%2232%22%20value%3D%22Account%20update%20date%22%20style%3D%22shape%3DpartialRectangle%3Bconnectable%3D0%3BfillColor%3Dnone%3Btop%3D0%3Bleft%3D0%3Bbottom%3D0%3Bright%3D0%3Balign%3Dleft%3BspacingLeft%3D2%3Boverflow%3Dhidden%3BfontSize%3D11%3B%22%20vertex%3D%221%22%20parent%3D%2228%22%3E%3CmxGeometry%20x%3D%22118%22%20width%3D%22168%22%20height%3D%2222%22%20as%3D%22geometry%22%3E%3CmxRectangle%20width%3D%22168%22%20height%3D%2222%22%20as%3D%22alternateBounds%22%2F%3E%3C%2FmxGeometry%3E%3C%2FmxCell%3E%3CmxCell%20id%3D%2233%22%20value%3D%22TEAM%22%20style%3D%22shape%3Dtable%3BstartSize%3D25%3Bcontainer%3D1%3Bcollapsible%3D0%3BchildLayout%3DtableLayout%3BfixedRows%3D1%3BrowLines%3D1%3BfontStyle%3D1%3Balign%3Dcenter%3BresizeLast%3D1%3B%22%20vertex%3D%221%22%20parent%3D%221%22%3E%3CmxGeometry%20x%3D%22509%22%20y%3D%221201%22%20width%3D%22322%22%20height%3D%22135%22%20as%3D%22geometry%22%2F%3E%3C%2FmxCell%3E%3CmxCell%20id%3D%2234%22%20style%3D%22shape%3DtableRow%3Bhorizontal%3D0%3BstartSize%3D0%3BswimlaneHead%3D0%3BswimlaneBody%3D0%3BfillColor%3Dnone%3Bcollapsible%3D0%3BdropTarget%3D0%3Bpoints%3D%5B%5B0%2C0.5%5D%2C%5B1%2C0.5%5D%5D%3BportConstraint%3Deastwest%3Btop%3D0%3Bleft%3D0%3Bright%3D0%3Bbottom%3D0%3B%22%20vertex%3D%221%22%20parent%3D%2233%22%3E%3CmxGeometry%20y%3D%2225%22%20width%3D%22322%22%20height%3D%2222%22%20as%3D%22geometry%22%2F%3E%3C%2FmxCell%3E%3CmxCell%20id%3D%2235%22%20value%3D%22int%22%20style%3D%22shape%3DpartialRectangle%3Bconnectable%3D0%3BfillColor%3Dnone%3Btop%3D0%3Bleft%3D0%3Bbottom%3D0%3Bright%3D0%3Balign%3Dleft%3BspacingLeft%3D2%3Boverflow%3Dhidden%3BfontSize%3D11%3B%22%20vertex%3D%221%22%20parent%3D%2234%22%3E%3CmxGeometry%20width%3D%2236%22%20height%3D%2222%22%20as%3D%22geometry%22%3E%3CmxRectangle%20width%3D%2236%22%20height%3D%2222%22%20as%3D%22alternateBounds%22%2F%3E%3C%2FmxGeometry%3E%3C%2FmxCell%3E%3CmxCell%20id%3D%2236%22%20value%3D%22id%22%20style%3D%22shape%3DpartialRectangle%3Bconnectable%3D0%3BfillColor%3Dnone%3Btop%3D0%3Bleft%3D0%3Bbottom%3D0%3Bright%3D0%3Balign%3Dleft%3BspacingLeft%3D2%3Boverflow%3Dhidden%3BfontSize%3D11%3B%22%20vertex%3D%221%22%20parent%3D%2234%22%3E%3CmxGeometry%20x%3D%2236%22%20width%3D%2266%22%20height%3D%2222%22%20as%3D%22geometry%22%3E%3CmxRectangle%20width%3D%2266%22%20height%3D%2222%22%20as%3D%22alternateBounds%22%2F%3E%3C%2FmxGeometry%3E%3C%2FmxCell%3E%3CmxCell%20id%3D%2237%22%20value%3D%22PK%22%20style%3D%22shape%3DpartialRectangle%3Bconnectable%3D0%3BfillColor%3Dnone%3Btop%3D0%3Bleft%3D0%3Bbottom%3D0%3Bright%3D0%3Balign%3Dleft%3BspacingLeft%3D2%3Boverflow%3Dhidden%3BfontSize%3D11%3B%22%20vertex%3D%221%22%20parent%3D%2234%22%3E%3CmxGeometry%20x%3D%22102%22%20width%3D%2222%22%20height%3D%2222%22%20as%3D%22geometry%22%3E%3CmxRectangle%20width%3D%2222%22%20height%3D%2222%22%20as%3D%22alternateBounds%22%2F%3E%3C%2FmxGeometry%3E%3C%2FmxCell%3E%3CmxCell%20id%3D%2238%22%20value%3D%22Primary%20Key%22%20style%3D%22shape%3DpartialRectangle%3Bconnectable%3D0%3BfillColor%3Dnone%3Btop%3D0%3Bleft%3D0%3Bbottom%3D0%3Bright%3D0%3Balign%3Dleft%3BspacingLeft%3D2%3Boverflow%3Dhidden%3BfontSize%3D11%3B%22%20vertex%3D%221%22%20parent%3D%2234%22%3E%3CmxGeometry%20x%3D%22124%22%20width%3D%22198%22%20height%3D%2222%22%20as%3D%22geometry%22%3E%3CmxRectangle%20width%3D%22198%22%20height%3D%2222%22%20as%3D%22alternateBounds%22%2F%3E%3C%2FmxGeometry%3E%3C%2FmxCell%3E%3CmxCell%20id%3D%2239%22%20style%3D%22shape%3DtableRow%3Bhorizontal%3D0%3BstartSize%3D0%3BswimlaneHead%3D0%3BswimlaneBody%3D0%3BfillColor%3Dnone%3Bcollapsible%3D0%3BdropTarget%3D0%3Bpoints%3D%5B%5B0%2C0.5%5D%2C%5B1%2C0.5%5D%5D%3BportConstraint%3Deastwest%3Btop%3D0%3Bleft%3D0%3Bright%3D0%3Bbottom%3D0%3B%22%20vertex%3D%221%22%20parent%3D%2233%22%3E%3CmxGeometry%20y%3D%2247%22%20width%3D%22322%22%20height%3D%2222%22%20as%3D%22geometry%22%2F%3E%3C%2FmxCell%3E%3CmxCell%20id%3D%2240%22%20value%3D%22string%22%20style%3D%22shape%3DpartialRectangle%3Bconnectable%3D0%3BfillColor%3Dnone%3Btop%3D0%3Bleft%3D0%3Bbottom%3D0%3Bright%3D0%3Balign%3Dleft%3BspacingLeft%3D2%3Boverflow%3Dhidden%3BfontSize%3D11%3B%22%20vertex%3D%221%22%20parent%3D%2239%22%3E%3CmxGeometry%20width%3D%2236%22%20height%3D%2222%22%20as%3D%22geometry%22%3E%3CmxRectangle%20width%3D%2236%22%20height%3D%2222%22%20as%3D%22alternateBounds%22%2F%3E%3C%2FmxGeometry%3E%3C%2FmxCell%3E%3CmxCell%20id%3D%2241%22%20value%3D%22name%22%20style%3D%22shape%3DpartialRectangle%3Bconnectable%3D0%3BfillColor%3Dnone%3Btop%3D0%3Bleft%3D0%3Bbottom%3D0%3Bright%3D0%3Balign%3Dleft%3BspacingLeft%3D2%3Boverflow%3Dhidden%3BfontSize%3D11%3B%22%20vertex%3D%221%22%20parent%3D%2239%22%3E%3CmxGeometry%20x%3D%2236%22%20width%3D%2266%22%20height%3D%2222%22%20as%3D%22geometry%22%3E%3CmxRectangle%20width%3D%2266%22%20height%3D%2222%22%20as%3D%22alternateBounds%22%2F%3E%3C%2FmxGeometry%3E%3C%2FmxCell%3E%3CmxCell%20id%3D%2242%22%20value%3D%22%22%20style%3D%22shape%3DpartialRectangle%3Bconnectable%3D0%3BfillColor%3Dnone%3Btop%3D0%3Bleft%3D0%3Bbottom%3D0%3Bright%3D0%3Balign%3Dleft%3BspacingLeft%3D2%3Boverflow%3Dhidden%3BfontSize%3D11%3B%22%20vertex%3D%221%22%20parent%3D%2239%22%3E%3CmxGeometry%20x%3D%22102%22%20width%3D%2222%22%20height%3D%2222%22%20as%3D%22geometry%22%3E%3CmxRectangle%20width%3D%2222%22%20height%3D%2222%22%20as%3D%22alternateBounds%22%2F%3E%3C%2FmxGeometry%3E%3C%2FmxCell%3E%3CmxCell%20id%3D%2243%22%20value%3D%22Unique%20name%20for%20the%20team%22%20style%3D%22shape%3DpartialRectangle%3Bconnectable%3D0%3BfillColor%3Dnone%3Btop%3D0%3Bleft%3D0%3Bbottom%3D0%3Bright%3D0%3Balign%3Dleft%3BspacingLeft%3D2%3Boverflow%3Dhidden%3BfontSize%3D11%3B%22%20vertex%3D%221%22%20parent%3D%2239%22%3E%3CmxGeometry%20x%3D%22124%22%20width%3D%22198%22%20height%3D%2222%22%20as%3D%22geometry%22%3E%3CmxRectangle%20width%3D%22198%22%20height%3D%2222%22%20as%3D%22alternateBounds%22%2F%3E%3C%2FmxGeometry%3E%3C%2FmxCell%3E%3CmxCell%20id%3D%2244%22%20style%3D%22shape%3DtableRow%3Bhorizontal%3D0%3BstartSize%3D0%3BswimlaneHead%3D0%3BswimlaneBody%3D0%3BfillColor%3Dnone%3Bcollapsible%3D0%3BdropTarget%3D0%3Bpoints%3D%5B%5B0%2C0.5%5D%2C%5B1%2C0.5%5D%5D%3BportConstraint%3Deastwest%3Btop%3D0%3Bleft%3D0%3Bright%3D0%3Bbottom%3D0%3B%22%20vertex%3D%221%22%20parent%3D%2233%22%3E%3CmxGeometry%20y%3D%2269%22%20width%3D%22322%22%20height%3D%2222%22%20as%3D%22geometry%22%2F%3E%3C%2FmxCell%3E%3CmxCell%20id%3D%2245%22%20value%3D%22string%22%20style%3D%22shape%3DpartialRectangle%3Bconnectable%3D0%3BfillColor%3Dnone%3Btop%3D0%3Bleft%3D0%3Bbottom%3D0%3Bright%3D0%3Balign%3Dleft%3BspacingLeft%3D2%3Boverflow%3Dhidden%3BfontSize%3D11%3B%22%20vertex%3D%221%22%20parent%3D%2244%22%3E%3CmxGeometry%20width%3D%2236%22%20height%3D%2222%22%20as%3D%22geometry%22%3E%3CmxRectangle%20width%3D%2236%22%20height%3D%2222%22%20as%3D%22alternateBounds%22%2F%3E%3C%2FmxGeometry%3E%3C%2FmxCell%3E%3CmxCell%20id%3D%2246%22%20value%3D%22description%22%20style%3D%22shape%3DpartialRectangle%3Bconnectable%3D0%3BfillColor%3Dnone%3Btop%3D0%3Bleft%3D0%3Bbottom%3D0%3Bright%3D0%3Balign%3Dleft%3BspacingLeft%3D2%3Boverflow%3Dhidden%3BfontSize%3D11%3B%22%20vertex%3D%221%22%20parent%3D%2244%22%3E%3CmxGeometry%20x%3D%2236%22%20width%3D%2266%22%20height%3D%2222%22%20as%3D%22geometry%22%3E%3CmxRectangle%20width%3D%2266%22%20height%3D%2222%22%20as%3D%22alternateBounds%22%2F%3E%3C%2FmxGeometry%3E%3C%2FmxCell%3E%3CmxCell%20id%3D%2247%22%20value%3D%22%22%20style%3D%22shape%3DpartialRectangle%3Bconnectable%3D0%3BfillColor%3Dnone%3Btop%3D0%3Bleft%3D0%3Bbottom%3D0%3Bright%3D0%3Balign%3Dleft%3BspacingLeft%3D2%3Boverflow%3Dhidden%3BfontSize%3D11%3B%22%20vertex%3D%221%22%20parent%3D%2244%22%3E%3CmxGeometry%20x%3D%22102%22%20width%3D%2222%22%20height%3D%2222%22%20as%3D%22geometry%22%3E%3CmxRectangle%20width%3D%2222%22%20height%3D%2222%22%20as%3D%22alternateBounds%22%2F%3E%3C%2FmxGeometry%3E%3C%2FmxCell%3E%3CmxCell%20id%3D%2248%22%20value%3D%22Brief%20description%20of%20the%20team%22%20style%3D%22shape%3DpartialRectangle%3Bconnectable%3D0%3BfillColor%3Dnone%3Btop%3D0%3Bleft%3D0%3Bbottom%3D0%3Bright%3D0%3Balign%3Dleft%3BspacingLeft%3D2%3Boverflow%3Dhidden%3BfontSize%3D11%3B%22%20vertex%3D%221%22%20parent%3D%2244%22%3E%3CmxGeometry%20x%3D%22124%22%20width%3D%22198%22%20height%3D%2222%22%20as%3D%22geometry%22%3E%3CmxRectangle%20width%3D%22198%22%20height%3D%2222%22%20as%3D%22alternateBounds%22%2F%3E%3C%2FmxGeometry%3E%3C%2FmxCell%3E%3CmxCell%20id%3D%2249%22%20style%3D%22shape%3DtableRow%3Bhorizontal%3D0%3BstartSize%3D0%3BswimlaneHead%3D0%3BswimlaneBody%3D0%3BfillColor%3Dnone%3Bcollapsible%3D0%3BdropTarget%3D0%3Bpoints%3D%5B%5B0%2C0.5%5D%2C%5B1%2C0.5%5D%5D%3BportConstraint%3Deastwest%3Btop%3D0%3Bleft%3D0%3Bright%3D0%3Bbottom%3D0%3B%22%20vertex%3D%221%22%20parent%3D%2233%22%3E%3CmxGeometry%20y%3D%2291%22%20width%3D%22322%22%20height%3D%2222%22%20as%3D%22geometry%22%2F%3E%3C%2FmxCell%3E%3CmxCell%20id%3D%2250%22%20value%3D%22date%22%20style%3D%22shape%3DpartialRectangle%3Bconnectable%3D0%3BfillColor%3Dnone%3Btop%3D0%3Bleft%3D0%3Bbottom%3D0%3Bright%3D0%3Balign%3Dleft%3BspacingLeft%3D2%3Boverflow%3Dhidden%3BfontSize%3D11%3B%22%20vertex%3D%221%22%20parent%3D%2249%22%3E%3CmxGeometry%20width%3D%2236%22%20height%3D%2222%22%20as%3D%22geometry%22%3E%3CmxRectangle%20width%3D%2236%22%20height%3D%2222%22%20as%3D%22alternateBounds%22%2F%3E%3C%2FmxGeometry%3E%3C%2FmxCell%3E%3CmxCell%20id%3D%2251%22%20value%3D%22created_at%22%20style%3D%22shape%3DpartialRectangle%3Bconnectable%3D0%3BfillColor%3Dnone%3Btop%3D0%3Bleft%3D0%3Bbottom%3D0%3Bright%3D0%3Balign%3Dleft%3BspacingLeft%3D2%3Boverflow%3Dhidden%3BfontSize%3D11%3B%22%20vertex%3D%221%22%20parent%3D%2249%22%3E%3CmxGeometry%20x%3D%2236%22%20width%3D%2266%22%20height%3D%2222%22%20as%3D%22geometry%22%3E%3CmxRectangle%20width%3D%2266%22%20height%3D%2222%22%20as%3D%22alternateBounds%22%2F%3E%3C%2FmxGeometry%3E%3C%2FmxCell%3E%3CmxCell%20id%3D%2252%22%20value%3D%22%22%20style%3D%22shape%3DpartialRectangle%3Bconnectable%3D0%3BfillColor%3Dnone%3Btop%3D0%3Bleft%3D0%3Bbottom%3D0%3Bright%3D0%3Balign%3Dleft%3BspacingLeft%3D2%3Boverflow%3Dhidden%3BfontSize%3D11%3B%22%20vertex%3D%221%22%20parent%3D%2249%22%3E%3CmxGeometry%20x%3D%22102%22%20width%3D%2222%22%20height%3D%2222%22%20as%3D%22geometry%22%3E%3CmxRectangle%20width%3D%2222%22%20height%3D%2222%22%20as%3D%22alternateBounds%22%2F%3E%3C%2FmxGeometry%3E%3C%2FmxCell%3E%3CmxCell%20id%3D%2253%22%20value%3D%22Date%20team%20was%20created%22%20style%3D%22shape%3DpartialRectangle%3Bconnectable%3D0%3BfillColor%3Dnone%3Btop%3D0%3Bleft%3D0%3Bbottom%3D0%3Bright%3D0%3Balign%3Dleft%3BspacingLeft%3D2%3Boverflow%3Dhidden%3BfontSize%3D11%3B%22%20vertex%3D%221%22%20parent%3D%2249%22%3E%3CmxGeometry%20x%3D%22124%22%20width%3D%22198%22%20height%3D%2222%22%20as%3D%22geometry%22%3E%3CmxRectangle%20width%3D%22198%22%20height%3D%2222%22%20as%3D%22alternateBounds%22%2F%3E%3C%2FmxGeometry%3E%3C%2FmxCell%3E%3CmxCell%20id%3D%2254%22%20style%3D%22shape%3DtableRow%3Bhorizontal%3D0%3BstartSize%3D0%3BswimlaneHead%3D0%3BswimlaneBody%3D0%3BfillColor%3Dnone%3Bcollapsible%3D0%3BdropTarget%3D0%3Bpoints%3D%5B%5B0%2C0.5%5D%2C%5B1%2C0.5%5D%5D%3BportConstraint%3Deastwest%3Btop%3D0%3Bleft%3D0%3Bright%3D0%3Bbottom%3D0%3B%22%20vertex%3D%221%22%20parent%3D%2233%22%3E%3CmxGeometry%20y%3D%22113%22%20width%3D%22322%22%20height%3D%2222%22%20as%3D%22geometry%22%2F%3E%3C%2FmxCell%3E%3CmxCell%20id%3D%2255%22%20value%3D%22date%22%20style%3D%22shape%3DpartialRectangle%3Bconnectable%3D0%3BfillColor%3Dnone%3Btop%3D0%3Bleft%3D0%3Bbottom%3D0%3Bright%3D0%3Balign%3Dleft%3BspacingLeft%3D2%3Boverflow%3Dhidden%3BfontSize%3D11%3B%22%20vertex%3D%221%22%20parent%3D%2254%22%3E%3CmxGeometry%20width%3D%2236%22%20height%3D%2222%22%20as%3D%22geometry%22%3E%3CmxRectangle%20width%3D%2236%22%20height%3D%2222%22%20as%3D%22alternateBounds%22%2F%3E%3C%2FmxGeometry%3E%3C%2FmxCell%3E%3CmxCell%20id%3D%2256%22%20value%3D%22updated_at%22%20style%3D%22shape%3DpartialRectangle%3Bconnectable%3D0%3BfillColor%3Dnone%3Btop%3D0%3Bleft%3D0%3Bbottom%3D0%3Bright%3D0%3Balign%3Dleft%3BspacingLeft%3D2%3Boverflow%3Dhidden%3BfontSize%3D11%3B%22%20vertex%3D%221%22%20parent%3D%2254%22%3E%3CmxGeometry%20x%3D%2236%22%20width%3D%2266%22%20height%3D%2222%22%20as%3D%22geometry%22%3E%3CmxRectangle%20width%3D%2266%22%20height%3D%2222%22%20as%3D%22alternateBounds%22%2F%3E%3C%2FmxGeometry%3E%3C%2FmxCell%3E%3CmxCell%20id%3D%2257%22%20value%3D%22%22%20style%3D%22shape%3DpartialRectangle%3Bconnectable%3D0%3BfillColor%3Dnone%3Btop%3D0%3Bleft%3D0%3Bbottom%3D0%3Bright%3D0%3Balign%3Dleft%3BspacingLeft%3D2%3Boverflow%3Dhidden%3BfontSize%3D11%3B%22%20vertex%3D%221%22%20parent%3D%2254%22%3E%3CmxGeometry%20x%3D%22102%22%20width%3D%2222%22%20height%3D%2222%22%20as%3D%22geometry%22%3E%3CmxRectangle%20width%3D%2222%22%20height%3D%2222%22%20as%3D%22alternateBounds%22%2F%3E%3C%2FmxGeometry%3E%3C%2FmxCell%3E%3CmxCell%20id%3D%2258%22%20value%3D%22Date%20team%20information%20was%20updated%22%20style%3D%22shape%3DpartialRectangle%3Bconnectable%3D0%3BfillColor%3Dnone%3Btop%3D0%3Bleft%3D0%3Bbottom%3D0%3Bright%3D0%3Balign%3Dleft%3BspacingLeft%3D2%3Boverflow%3Dhidden%3BfontSize%3D11%3B%22%20vertex%3D%221%22%20parent%3D%2254%22%3E%3CmxGeometry%20x%3D%22124%22%20width%3D%22198%22%20height%3D%2222%22%20as%3D%22geometry%22%3E%3CmxRectangle%20width%3D%22198%22%20height%3D%2222%22%20as%3D%22alternateBounds%22%2F%3E%3C%2FmxGeometry%3E%3C%2FmxCell%3E%3CmxCell%20id%3D%2259%22%20value%3D%22USER_TEAM_TABLE%22%20style%3D%22shape%3Dtable%3BstartSize%3D25%3Bcontainer%3D1%3Bcollapsible%3D0%3BchildLayout%3DtableLayout%3BfixedRows%3D1%3BrowLines%3D1%3BfontStyle%3D1%3Balign%3Dcenter%3BresizeLast%3D1%3B%22%20vertex%3D%221%22%20parent%3D%221%22%3E%3CmxGeometry%20x%3D%22319%22%20y%3D%221446%22%20width%3D%22340%22%20height%3D%22135%22%20as%3D%22geometry%22%2F%3E%3C%2FmxCell%3E%3CmxCell%20id%3D%2260%22%20style%3D%22shape%3DtableRow%3Bhorizontal%3D0%3BstartSize%3D0%3BswimlaneHead%3D0%3BswimlaneBody%3D0%3BfillColor%3Dnone%3Bcollapsible%3D0%3BdropTarget%3D0%3Bpoints%3D%5B%5B0%2C0.5%5D%2C%5B1%2C0.5%5D%5D%3BportConstraint%3Deastwest%3Btop%3D0%3Bleft%3D0%3Bright%3D0%3Bbottom%3D0%3B%22%20vertex%3D%221%22%20parent%3D%2259%22%3E%3CmxGeometry%20y%3D%2225%22%20width%3D%22340%22%20height%3D%2222%22%20as%3D%22geometry%22%2F%3E%3C%2FmxCell%3E%3CmxCell%20id%3D%2261%22%20value%3D%22int%22%20style%3D%22shape%3DpartialRectangle%3Bconnectable%3D0%3BfillColor%3Dnone%3Btop%3D0%3Bleft%3D0%3Bbottom%3D0%3Bright%3D0%3Balign%3Dleft%3BspacingLeft%3D2%3Boverflow%3Dhidden%3BfontSize%3D11%3B%22%20vertex%3D%221%22%20parent%3D%2260%22%3E%3CmxGeometry%20width%3D%2236%22%20height%3D%2222%22%20as%3D%22geometry%22%3E%3CmxRectangle%20width%3D%2236%22%20height%3D%2222%22%20as%3D%22alternateBounds%22%2F%3E%3C%2FmxGeometry%3E%3C%2FmxCell%3E%3CmxCell%20id%3D%2262%22%20value%3D%22user_id%22%20style%3D%22shape%3DpartialRectangle%3Bconnectable%3D0%3BfillColor%3Dnone%3Btop%3D0%3Bleft%3D0%3Bbottom%3D0%3Bright%3D0%3Balign%3Dleft%3BspacingLeft%3D2%3Boverflow%3Dhidden%3BfontSize%3D11%3B%22%20vertex%3D%221%22%20parent%3D%2260%22%3E%3CmxGeometry%20x%3D%2236%22%20width%3D%2254%22%20height%3D%2222%22%20as%3D%22geometry%22%3E%3CmxRectangle%20width%3D%2254%22%20height%3D%2222%22%20as%3D%22alternateBounds%22%2F%3E%3C%2FmxGeometry%3E%3C%2FmxCell%3E%3CmxCell%20id%3D%2263%22%20value%3D%22FK%22%20style%3D%22shape%3DpartialRectangle%3Bconnectable%3D0%3BfillColor%3Dnone%3Btop%3D0%3Bleft%3D0%3Bbottom%3D0%3Bright%3D0%3Balign%3Dleft%3BspacingLeft%3D2%3Boverflow%3Dhidden%3BfontSize%3D11%3B%22%20vertex%3D%221%22%20parent%3D%2260%22%3E%3CmxGeometry%20x%3D%2290%22%20width%3D%2222%22%20height%3D%2222%22%20as%3D%22geometry%22%3E%3CmxRectangle%20width%3D%2222%22%20height%3D%2222%22%20as%3D%22alternateBounds%22%2F%3E%3C%2FmxGeometry%3E%3C%2FmxCell%3E%3CmxCell%20id%3D%2264%22%20value%3D%22Foreign%20Key%20referencing%20USER%22%20style%3D%22shape%3DpartialRectangle%3Bconnectable%3D0%3BfillColor%3Dnone%3Btop%3D0%3Bleft%3D0%3Bbottom%3D0%3Bright%3D0%3Balign%3Dleft%3BspacingLeft%3D2%3Boverflow%3Dhidden%3BfontSize%3D11%3B%22%20vertex%3D%221%22%20parent%3D%2260%22%3E%3CmxGeometry%20x%3D%22112%22%20width%3D%22228%22%20height%3D%2222%22%20as%3D%22geometry%22%3E%3CmxRectangle%20width%3D%22228%22%20height%3D%2222%22%20as%3D%22alternateBounds%22%2F%3E%3C%2FmxGeometry%3E%3C%2FmxCell%3E%3CmxCell%20id%3D%2265%22%20style%3D%22shape%3DtableRow%3Bhorizontal%3D0%3BstartSize%3D0%3BswimlaneHead%3D0%3BswimlaneBody%3D0%3BfillColor%3Dnone%3Bcollapsible%3D0%3BdropTarget%3D0%3Bpoints%3D%5B%5B0%2C0.5%5D%2C%5B1%2C0.5%5D%5D%3BportConstraint%3Deastwest%3Btop%3D0%3Bleft%3D0%3Bright%3D0%3Bbottom%3D0%3B%22%20vertex%3D%221%22%20parent%3D%2259%22%3E%3CmxGeometry%20y%3D%2247%22%20width%3D%22340%22%20height%3D%2222%22%20as%3D%22geometry%22%2F%3E%3C%2FmxCell%3E%3CmxCell%20id%3D%2266%22%20value%3D%22int%22%20style%3D%22shape%3DpartialRectangle%3Bconnectable%3D0%3BfillColor%3Dnone%3Btop%3D0%3Bleft%3D0%3Bbottom%3D0%3Bright%3D0%3Balign%3Dleft%3BspacingLeft%3D2%3Boverflow%3Dhidden%3BfontSize%3D11%3B%22%20vertex%3D%221%22%20parent%3D%2265%22%3E%3CmxGeometry%20width%3D%2236%22%20height%3D%2222%22%20as%3D%22geometry%22%3E%3CmxRectangle%20width%3D%2236%22%20height%3D%2222%22%20as%3D%22alternateBounds%22%2F%3E%3C%2FmxGeometry%3E%3C%2FmxCell%3E%3CmxCell%20id%3D%2267%22%20value%3D%22team_id%22%20style%3D%22shape%3DpartialRectangle%3Bconnectable%3D0%3BfillColor%3Dnone%3Btop%3D0%3Bleft%3D0%3Bbottom%3D0%3Bright%3D0%3Balign%3Dleft%3BspacingLeft%3D2%3Boverflow%3Dhidden%3BfontSize%3D11%3B%22%20vertex%3D%221%22%20parent%3D%2265%22%3E%3CmxGeometry%20x%3D%2236%22%20width%3D%2254%22%20height%3D%2222%22%20as%3D%22geometry%22%3E%3CmxRectangle%20width%3D%2254%22%20height%3D%2222%22%20as%3D%22alternateBounds%22%2F%3E%3C%2FmxGeometry%3E%3C%2FmxCell%3E%3CmxCell%20id%3D%2268%22%20value%3D%22FK%22%20style%3D%22shape%3DpartialRectangle%3Bconnectable%3D0%3BfillColor%3Dnone%3Btop%3D0%3Bleft%3D0%3Bbottom%3D0%3Bright%3D0%3Balign%3Dleft%3BspacingLeft%3D2%3Boverflow%3Dhidden%3BfontSize%3D11%3B%22%20vertex%3D%221%22%20parent%3D%2265%22%3E%3CmxGeometry%20x%3D%2290%22%20width%3D%2222%22%20height%3D%2222%22%20as%3D%22geometry%22%3E%3CmxRectangle%20width%3D%2222%22%20height%3D%2222%22%20as%3D%22alternateBounds%22%2F%3E%3C%2FmxGeometry%3E%3C%2FmxCell%3E%3CmxCell%20id%3D%2269%22%20value%3D%22Foreign%20Key%20referencing%20TEAM%22%20style%3D%22shape%3DpartialRectangle%3Bconnectable%3D0%3BfillColor%3Dnone%3Btop%3D0%3Bleft%3D0%3Bbottom%3D0%3Bright%3D0%3Balign%3Dleft%3BspacingLeft%3D2%3Boverflow%3Dhidden%3BfontSize%3D11%3B%22%20vertex%3D%221%22%20parent%3D%2265%22%3E%3CmxGeometry%20x%3D%22112%22%20width%3D%22228%22%20height%3D%2222%22%20as%3D%22geometry%22%3E%3CmxRectangle%20width%3D%22228%22%20height%3D%2222%22%20as%3D%22alternateBounds%22%2F%3E%3C%2FmxGeometry%3E%3C%2FmxCell%3E%3CmxCell%20id%3D%2270%22%20style%3D%22shape%3DtableRow%3Bhorizontal%3D0%3BstartSize%3D0%3BswimlaneHead%3D0%3BswimlaneBody%3D0%3BfillColor%3Dnone%3Bcollapsible%3D0%3BdropTarget%3D0%3Bpoints%3D%5B%5B0%2C0.5%5D%2C%5B1%2C0.5%5D%5D%3BportConstraint%3Deastwest%3Btop%3D0%3Bleft%3D0%3Bright%3D0%3Bbottom%3D0%3B%22%20vertex%3D%221%22%20parent%3D%2259%22%3E%3CmxGeometry%20y%3D%2269%22%20width%3D%22340%22%20height%3D%2222%22%20as%3D%22geometry%22%2F%3E%3C%2FmxCell%3E%3CmxCell%20id%3D%2271%22%20value%3D%22date%22%20style%3D%22shape%3DpartialRectangle%3Bconnectable%3D0%3BfillColor%3Dnone%3Btop%3D0%3Bleft%3D0%3Bbottom%3D0%3Bright%3D0%3Balign%3Dleft%3BspacingLeft%3D2%3Boverflow%3Dhidden%3BfontSize%3D11%3B%22%20vertex%3D%221%22%20parent%3D%2270%22%3E%3CmxGeometry%20width%3D%2236%22%20height%3D%2222%22%20as%3D%22geometry%22%3E%3CmxRectangle%20width%3D%2236%22%20height%3D%2222%22%20as%3D%22alternateBounds%22%2F%3E%3C%2FmxGeometry%3E%3C%2FmxCell%3E%3CmxCell%20id%3D%2272%22%20value%3D%22joined_at%22%20style%3D%22shape%3DpartialRectangle%3Bconnectable%3D0%3BfillColor%3Dnone%3Btop%3D0%3Bleft%3D0%3Bbottom%3D0%3Bright%3D0%3Balign%3Dleft%3BspacingLeft%3D2%3Boverflow%3Dhidden%3BfontSize%3D11%3B%22%20vertex%3D%221%22%20parent%3D%2270%22%3E%3CmxGeometry%20x%3D%2236%22%20width%3D%2254%22%20height%3D%2222%22%20as%3D%22geometry%22%3E%3CmxRectangle%20width%3D%2254%22%20height%3D%2222%22%20as%3D%22alternateBounds%22%2F%3E%3C%2FmxGeometry%3E%3C%2FmxCell%3E%3CmxCell%20id%3D%2273%22%20value%3D%22%22%20style%3D%22shape%3DpartialRectangle%3Bconnectable%3D0%3BfillColor%3Dnone%3Btop%3D0%3Bleft%3D0%3Bbottom%3D0%3Bright%3D0%3Balign%3Dleft%3BspacingLeft%3D2%3Boverflow%3Dhidden%3BfontSize%3D11%3B%22%20vertex%3D%221%22%20parent%3D%2270%22%3E%3CmxGeometry%20x%3D%2290%22%20width%3D%2222%22%20height%3D%2222%22%20as%3D%22geometry%22%3E%3CmxRectangle%20width%3D%2222%22%20height%3D%2222%22%20as%3D%22alternateBounds%22%2F%3E%3C%2FmxGeometry%3E%3C%2FmxCell%3E%3CmxCell%20id%3D%2274%22%20value%3D%22Date%20the%20user%20joined%20the%20team%22%20style%3D%22shape%3DpartialRectangle%3Bconnectable%3D0%3BfillColor%3Dnone%3Btop%3D0%3Bleft%3D0%3Bbottom%3D0%3Bright%3D0%3Balign%3Dleft%3BspacingLeft%3D2%3Boverflow%3Dhidden%3BfontSize%3D11%3B%22%20vertex%3D%221%22%20parent%3D%2270%22%3E%3CmxGeometry%20x%3D%22112%22%20width%3D%22228%22%20height%3D%2222%22%20as%3D%22geometry%22%3E%3CmxRectangle%20width%3D%22228%22%20height%3D%2222%22%20as%3D%22alternateBounds%22%2F%3E%3C%2FmxGeometry%3E%3C%2FmxCell%3E%3CmxCell%20id%3D%2275%22%20style%3D%22shape%3DtableRow%3Bhorizontal%3D0%3BstartSize%3D0%3BswimlaneHead%3D0%3BswimlaneBody%3D0%3BfillColor%3Dnone%3Bcollapsible%3D0%3BdropTarget%3D0%3Bpoints%3D%5B%5B0%2C0.5%5D%2C%5B1%2C0.5%5D%5D%3BportConstraint%3Deastwest%3Btop%3D0%3Bleft%3D0%3Bright%3D0%3Bbottom%3D0%3B%22%20vertex%3D%221%22%20parent%3D%2259%22%3E%3CmxGeometry%20y%3D%2291%22%20width%3D%22340%22%20height%3D%2222%22%20as%3D%22geometry%22%2F%3E%3C%2FmxCell%3E%3CmxCell%20id%3D%2276%22%20value%3D%22date%22%20style%3D%22shape%3DpartialRectangle%3Bconnectable%3D0%3BfillColor%3Dnone%3Btop%3D0%3Bleft%3D0%3Bbottom%3D0%3Bright%3D0%3Balign%3Dleft%3BspacingLeft%3D2%3Boverflow%3Dhidden%3BfontSize%3D11%3B%22%20vertex%3D%221%22%20parent%3D%2275%22%3E%3CmxGeometry%20width%3D%2236%22%20height%3D%2222%22%20as%3D%22geometry%22%3E%3CmxRectangle%20width%3D%2236%22%20height%3D%2222%22%20as%3D%22alternateBounds%22%2F%3E%3C%2FmxGeometry%3E%3C%2FmxCell%3E%3CmxCell%20id%3D%2277%22%20value%3D%22left_at%22%20style%3D%22shape%3DpartialRectangle%3Bconnectable%3D0%3BfillColor%3Dnone%3Btop%3D0%3Bleft%3D0%3Bbottom%3D0%3Bright%3D0%3Balign%3Dleft%3BspacingLeft%3D2%3Boverflow%3Dhidden%3BfontSize%3D11%3B%22%20vertex%3D%221%22%20parent%3D%2275%22%3E%3CmxGeometry%20x%3D%2236%22%20width%3D%2254%22%20height%3D%2222%22%20as%3D%22geometry%22%3E%3CmxRectangle%20width%3D%2254%22%20height%3D%2222%22%20as%3D%22alternateBounds%22%2F%3E%3C%2FmxGeometry%3E%3C%2FmxCell%3E%3CmxCell%20id%3D%2278%22%20value%3D%22%22%20style%3D%22shape%3DpartialRectangle%3Bconnectable%3D0%3BfillColor%3Dnone%3Btop%3D0%3Bleft%3D0%3Bbottom%3D0%3Bright%3D0%3Balign%3Dleft%3BspacingLeft%3D2%3Boverflow%3Dhidden%3BfontSize%3D11%3B%22%20vertex%3D%221%22%20parent%3D%2275%22%3E%3CmxGeometry%20x%3D%2290%22%20width%3D%2222%22%20height%3D%2222%22%20as%3D%22geometry%22%3E%3CmxRectangle%20width%3D%2222%22%20height%3D%2222%22%20as%3D%22alternateBounds%22%2F%3E%3C%2FmxGeometry%3E%3C%2FmxCell%3E%3CmxCell%20id%3D%2279%22%20value%3D%22Date%20the%20user%20left%20the%20team%20(nullable)%22%20style%3D%22shape%3DpartialRectangle%3Bconnectable%3D0%3BfillColor%3Dnone%3Btop%3D0%3Bleft%3D0%3Bbottom%3D0%3Bright%3D0%3Balign%3Dleft%3BspacingLeft%3D2%3Boverflow%3Dhidden%3BfontSize%3D11%3B%22%20vertex%3D%221%22%20parent%3D%2275%22%3E%3CmxGeometry%20x%3D%22112%22%20width%3D%22228%22%20height%3D%2222%22%20as%3D%22geometry%22%3E%3CmxRectangle%20width%3D%22228%22%20height%3D%2222%22%20as%3D%22alternateBounds%22%2F%3E%3C%2FmxGeometry%3E%3C%2FmxCell%3E%3CmxCell%20id%3D%2280%22%20style%3D%22shape%3DtableRow%3Bhorizontal%3D0%3BstartSize%3D0%3BswimlaneHead%3D0%3BswimlaneBody%3D0%3BfillColor%3Dnone%3Bcollapsible%3D0%3BdropTarget%3D0%3Bpoints%3D%5B%5B0%2C0.5%5D%2C%5B1%2C0.5%5D%5D%3BportConstraint%3Deastwest%3Btop%3D0%3Bleft%3D0%3Bright%3D0%3Bbottom%3D0%3B%22%20vertex%3D%221%22%20parent%3D%2259%22%3E%3CmxGeometry%20y%3D%22113%22%20width%3D%22340%22%20height%3D%2222%22%20as%3D%22geometry%22%2F%3E%3C%2FmxCell%3E%3CmxCell%20id%3D%2281%22%20value%3D%22string%22%20style%3D%22shape%3DpartialRectangle%3Bconnectable%3D0%3BfillColor%3Dnone%3Btop%3D0%3Bleft%3D0%3Bbottom%3D0%3Bright%3D0%3Balign%3Dleft%3BspacingLeft%3D2%3Boverflow%3Dhidden%3BfontSize%3D11%3B%22%20vertex%3D%221%22%20parent%3D%2280%22%3E%3CmxGeometry%20width%3D%2236%22%20height%3D%2222%22%20as%3D%22geometry%22%3E%3CmxRectangle%20width%3D%2236%22%20height%3D%2222%22%20as%3D%22alternateBounds%22%2F%3E%3C%2FmxGeometry%3E%3C%2FmxCell%3E%3CmxCell%20id%3D%2282%22%20value%3D%22role%22%20style%3D%22shape%3DpartialRectangle%3Bconnectable%3D0%3BfillColor%3Dnone%3Btop%3D0%3Bleft%3D0%3Bbottom%3D0%3Bright%3D0%3Balign%3Dleft%3BspacingLeft%3D2%3Boverflow%3Dhidden%3BfontSize%3D11%3B%22%20vertex%3D%221%22%20parent%3D%2280%22%3E%3CmxGeometry%20x%3D%2236%22%20width%3D%2254%22%20height%3D%2222%22%20as%3D%22geometry%22%3E%3CmxRectangle%20width%3D%2254%22%20height%3D%2222%22%20as%3D%22alternateBounds%22%2F%3E%3C%2FmxGeometry%3E%3C%2FmxCell%3E%3CmxCell%20id%3D%2283%22%20value%3D%22%22%20style%3D%22shape%3DpartialRectangle%3Bconnectable%3D0%3BfillColor%3Dnone%3Btop%3D0%3Bleft%3D0%3Bbottom%3D0%3Bright%3D0%3Balign%3Dleft%3BspacingLeft%3D2%3Boverflow%3Dhidden%3BfontSize%3D11%3B%22%20vertex%3D%221%22%20parent%3D%2280%22%3E%3CmxGeometry%20x%3D%2290%22%20width%3D%2222%22%20height%3D%2222%22%20as%3D%22geometry%22%3E%3CmxRectangle%20width%3D%2222%22%20height%3D%2222%22%20as%3D%22alternateBounds%22%2F%3E%3C%2FmxGeometry%3E%3C%2FmxCell%3E%3CmxCell%20id%3D%2284%22%20value%3D%22Role%20of%20the%20user%20in%20the%20team%22%20style%3D%22shape%3DpartialRectangle%3Bconnectable%3D0%3BfillColor%3Dnone%3Btop%3D0%3Bleft%3D0%3Bbottom%3D0%3Bright%3D0%3Balign%3Dleft%3BspacingLeft%3D2%3Boverflow%3Dhidden%3BfontSize%3D11%3B%22%20vertex%3D%221%22%20parent%3D%2280%22%3E%3CmxGeometry%20x%3D%22112%22%20width%3D%22228%22%20height%3D%2222%22%20as%3D%22geometry%22%3E%3CmxRectangle%20width%3D%22228%22%20height%3D%2222%22%20as%3D%22alternateBounds%22%2F%3E%3C%2FmxGeometry%3E%3C%2FmxCell%3E%3CmxCell%20id%3D%2285%22%20value%3D%22has%22%20style%3D%22curved%3D1%3BstartArrow%3DERmandOne%3BstartSize%3D10%3B%3BendArrow%3DERzeroToMany%3BendSize%3D10%3B%3BexitX%3D0.46%3BexitY%3D1%3BentryX%3D0.11%3BentryY%3D0%3Brounded%3D0%3B%22%20edge%3D%221%22%20source%3D%222%22%20target%3D%2259%22%20parent%3D%221%22%3E%3CmxGeometry%20relative%3D%221%22%20as%3D%22geometry%22%3E%3CArray%20as%3D%22points%22%3E%3CmxPoint%20x%3D%22276%22%20y%3D%221396%22%2F%3E%3C%2FArray%3E%3C%2FmxGeometry%3E%3C%2FmxCell%3E%3CmxCell%20id%3D%2286%22%20value%3D%22includes%22%20style%3D%22curved%3D1%3BstartArrow%3DERmandOne%3BstartSize%3D10%3B%3BendArrow%3DERzeroToMany%3BendSize%3D10%3B%3BexitX%3D0.46%3BexitY%3D1%3BentryX%3D0.75%3BentryY%3D0%3Brounded%3D0%3B%22%20edge%3D%221%22%20source%3D%2233%22%20target%3D%2259%22%20parent%3D%221%22%3E%3CmxGeometry%20relative%3D%221%22%20as%3D%22geometry%22%3E%3CArray%20as%3D%22points%22%3E%3CmxPoint%20x%3D%22656%22%20y%3D%221396%22%2F%3E%3C%2FArray%3E%3C%2FmxGeometry%3E%3C%2FmxCell%3E%3C%2Froot%3E%3C%2FmxGraphModel%3E&lt;/span&gt;" style="rounded=1;whiteSpace=wrap;html=1;" vertex="1" parent="1">
          <mxGeometry x="66" y="1160" width="814" height="440" as="geometry" />
        </mxCell>
        <mxCell id="huza8Dq0BffoJNn7cIbv-122" value="USER" style="shape=table;startSize=25;container=1;collapsible=0;childLayout=tableLayout;fixedRows=1;rowLines=1;fontStyle=1;align=center;resizeLast=1;" vertex="1" parent="1">
          <mxGeometry x="143" y="1190" width="286" height="157" as="geometry" />
        </mxCell>
        <mxCell id="huza8Dq0BffoJNn7cIbv-123" style="shape=tableRow;horizontal=0;startSize=0;swimlaneHead=0;swimlaneBody=0;fillColor=none;collapsible=0;dropTarget=0;points=[[0,0.5],[1,0.5]];portConstraint=eastwest;top=0;left=0;right=0;bottom=0;" vertex="1" parent="huza8Dq0BffoJNn7cIbv-122">
          <mxGeometry y="25" width="286" height="22" as="geometry" />
        </mxCell>
        <mxCell id="huza8Dq0BffoJNn7cIbv-124" value="int" style="shape=partialRectangle;connectable=0;fillColor=none;top=0;left=0;bottom=0;right=0;align=left;spacingLeft=2;overflow=hidden;fontSize=11;" vertex="1" parent="huza8Dq0BffoJNn7cIbv-123">
          <mxGeometry width="36" height="22" as="geometry">
            <mxRectangle width="36" height="22" as="alternateBounds" />
          </mxGeometry>
        </mxCell>
        <mxCell id="huza8Dq0BffoJNn7cIbv-125" value="id" style="shape=partialRectangle;connectable=0;fillColor=none;top=0;left=0;bottom=0;right=0;align=left;spacingLeft=2;overflow=hidden;fontSize=11;" vertex="1" parent="huza8Dq0BffoJNn7cIbv-123">
          <mxGeometry x="36" width="60" height="22" as="geometry">
            <mxRectangle width="60" height="22" as="alternateBounds" />
          </mxGeometry>
        </mxCell>
        <mxCell id="huza8Dq0BffoJNn7cIbv-126" value="PK" style="shape=partialRectangle;connectable=0;fillColor=none;top=0;left=0;bottom=0;right=0;align=left;spacingLeft=2;overflow=hidden;fontSize=11;" vertex="1" parent="huza8Dq0BffoJNn7cIbv-123">
          <mxGeometry x="96" width="22" height="22" as="geometry">
            <mxRectangle width="22" height="22" as="alternateBounds" />
          </mxGeometry>
        </mxCell>
        <mxCell id="huza8Dq0BffoJNn7cIbv-127" value="Primary Key" style="shape=partialRectangle;connectable=0;fillColor=none;top=0;left=0;bottom=0;right=0;align=left;spacingLeft=2;overflow=hidden;fontSize=11;" vertex="1" parent="huza8Dq0BffoJNn7cIbv-123">
          <mxGeometry x="118" width="168" height="22" as="geometry">
            <mxRectangle width="168" height="22" as="alternateBounds" />
          </mxGeometry>
        </mxCell>
        <mxCell id="huza8Dq0BffoJNn7cIbv-128" style="shape=tableRow;horizontal=0;startSize=0;swimlaneHead=0;swimlaneBody=0;fillColor=none;collapsible=0;dropTarget=0;points=[[0,0.5],[1,0.5]];portConstraint=eastwest;top=0;left=0;right=0;bottom=0;" vertex="1" parent="huza8Dq0BffoJNn7cIbv-122">
          <mxGeometry y="47" width="286" height="22" as="geometry" />
        </mxCell>
        <mxCell id="huza8Dq0BffoJNn7cIbv-129" value="string" style="shape=partialRectangle;connectable=0;fillColor=none;top=0;left=0;bottom=0;right=0;align=left;spacingLeft=2;overflow=hidden;fontSize=11;" vertex="1" parent="huza8Dq0BffoJNn7cIbv-128">
          <mxGeometry width="36" height="22" as="geometry">
            <mxRectangle width="36" height="22" as="alternateBounds" />
          </mxGeometry>
        </mxCell>
        <mxCell id="huza8Dq0BffoJNn7cIbv-130" value="username" style="shape=partialRectangle;connectable=0;fillColor=none;top=0;left=0;bottom=0;right=0;align=left;spacingLeft=2;overflow=hidden;fontSize=11;" vertex="1" parent="huza8Dq0BffoJNn7cIbv-128">
          <mxGeometry x="36" width="60" height="22" as="geometry">
            <mxRectangle width="60" height="22" as="alternateBounds" />
          </mxGeometry>
        </mxCell>
        <mxCell id="huza8Dq0BffoJNn7cIbv-131" value="" style="shape=partialRectangle;connectable=0;fillColor=none;top=0;left=0;bottom=0;right=0;align=left;spacingLeft=2;overflow=hidden;fontSize=11;" vertex="1" parent="huza8Dq0BffoJNn7cIbv-128">
          <mxGeometry x="96" width="22" height="22" as="geometry">
            <mxRectangle width="22" height="22" as="alternateBounds" />
          </mxGeometry>
        </mxCell>
        <mxCell id="huza8Dq0BffoJNn7cIbv-132" value="Unique username for the user" style="shape=partialRectangle;connectable=0;fillColor=none;top=0;left=0;bottom=0;right=0;align=left;spacingLeft=2;overflow=hidden;fontSize=11;" vertex="1" parent="huza8Dq0BffoJNn7cIbv-128">
          <mxGeometry x="118" width="168" height="22" as="geometry">
            <mxRectangle width="168" height="22" as="alternateBounds" />
          </mxGeometry>
        </mxCell>
        <mxCell id="huza8Dq0BffoJNn7cIbv-133" style="shape=tableRow;horizontal=0;startSize=0;swimlaneHead=0;swimlaneBody=0;fillColor=none;collapsible=0;dropTarget=0;points=[[0,0.5],[1,0.5]];portConstraint=eastwest;top=0;left=0;right=0;bottom=0;" vertex="1" parent="huza8Dq0BffoJNn7cIbv-122">
          <mxGeometry y="69" width="286" height="22" as="geometry" />
        </mxCell>
        <mxCell id="huza8Dq0BffoJNn7cIbv-134" value="string" style="shape=partialRectangle;connectable=0;fillColor=none;top=0;left=0;bottom=0;right=0;align=left;spacingLeft=2;overflow=hidden;fontSize=11;" vertex="1" parent="huza8Dq0BffoJNn7cIbv-133">
          <mxGeometry width="36" height="22" as="geometry">
            <mxRectangle width="36" height="22" as="alternateBounds" />
          </mxGeometry>
        </mxCell>
        <mxCell id="huza8Dq0BffoJNn7cIbv-135" value="email" style="shape=partialRectangle;connectable=0;fillColor=none;top=0;left=0;bottom=0;right=0;align=left;spacingLeft=2;overflow=hidden;fontSize=11;" vertex="1" parent="huza8Dq0BffoJNn7cIbv-133">
          <mxGeometry x="36" width="60" height="22" as="geometry">
            <mxRectangle width="60" height="22" as="alternateBounds" />
          </mxGeometry>
        </mxCell>
        <mxCell id="huza8Dq0BffoJNn7cIbv-136" value="" style="shape=partialRectangle;connectable=0;fillColor=none;top=0;left=0;bottom=0;right=0;align=left;spacingLeft=2;overflow=hidden;fontSize=11;" vertex="1" parent="huza8Dq0BffoJNn7cIbv-133">
          <mxGeometry x="96" width="22" height="22" as="geometry">
            <mxRectangle width="22" height="22" as="alternateBounds" />
          </mxGeometry>
        </mxCell>
        <mxCell id="huza8Dq0BffoJNn7cIbv-137" value="User email address" style="shape=partialRectangle;connectable=0;fillColor=none;top=0;left=0;bottom=0;right=0;align=left;spacingLeft=2;overflow=hidden;fontSize=11;" vertex="1" parent="huza8Dq0BffoJNn7cIbv-133">
          <mxGeometry x="118" width="168" height="22" as="geometry">
            <mxRectangle width="168" height="22" as="alternateBounds" />
          </mxGeometry>
        </mxCell>
        <mxCell id="huza8Dq0BffoJNn7cIbv-138" style="shape=tableRow;horizontal=0;startSize=0;swimlaneHead=0;swimlaneBody=0;fillColor=none;collapsible=0;dropTarget=0;points=[[0,0.5],[1,0.5]];portConstraint=eastwest;top=0;left=0;right=0;bottom=0;" vertex="1" parent="huza8Dq0BffoJNn7cIbv-122">
          <mxGeometry y="91" width="286" height="22" as="geometry" />
        </mxCell>
        <mxCell id="huza8Dq0BffoJNn7cIbv-139" value="string" style="shape=partialRectangle;connectable=0;fillColor=none;top=0;left=0;bottom=0;right=0;align=left;spacingLeft=2;overflow=hidden;fontSize=11;" vertex="1" parent="huza8Dq0BffoJNn7cIbv-138">
          <mxGeometry width="36" height="22" as="geometry">
            <mxRectangle width="36" height="22" as="alternateBounds" />
          </mxGeometry>
        </mxCell>
        <mxCell id="huza8Dq0BffoJNn7cIbv-140" value="password" style="shape=partialRectangle;connectable=0;fillColor=none;top=0;left=0;bottom=0;right=0;align=left;spacingLeft=2;overflow=hidden;fontSize=11;" vertex="1" parent="huza8Dq0BffoJNn7cIbv-138">
          <mxGeometry x="36" width="60" height="22" as="geometry">
            <mxRectangle width="60" height="22" as="alternateBounds" />
          </mxGeometry>
        </mxCell>
        <mxCell id="huza8Dq0BffoJNn7cIbv-141" value="" style="shape=partialRectangle;connectable=0;fillColor=none;top=0;left=0;bottom=0;right=0;align=left;spacingLeft=2;overflow=hidden;fontSize=11;" vertex="1" parent="huza8Dq0BffoJNn7cIbv-138">
          <mxGeometry x="96" width="22" height="22" as="geometry">
            <mxRectangle width="22" height="22" as="alternateBounds" />
          </mxGeometry>
        </mxCell>
        <mxCell id="huza8Dq0BffoJNn7cIbv-142" value="Hashed user password" style="shape=partialRectangle;connectable=0;fillColor=none;top=0;left=0;bottom=0;right=0;align=left;spacingLeft=2;overflow=hidden;fontSize=11;" vertex="1" parent="huza8Dq0BffoJNn7cIbv-138">
          <mxGeometry x="118" width="168" height="22" as="geometry">
            <mxRectangle width="168" height="22" as="alternateBounds" />
          </mxGeometry>
        </mxCell>
        <mxCell id="huza8Dq0BffoJNn7cIbv-143" style="shape=tableRow;horizontal=0;startSize=0;swimlaneHead=0;swimlaneBody=0;fillColor=none;collapsible=0;dropTarget=0;points=[[0,0.5],[1,0.5]];portConstraint=eastwest;top=0;left=0;right=0;bottom=0;" vertex="1" parent="huza8Dq0BffoJNn7cIbv-122">
          <mxGeometry y="113" width="286" height="22" as="geometry" />
        </mxCell>
        <mxCell id="huza8Dq0BffoJNn7cIbv-144" value="date" style="shape=partialRectangle;connectable=0;fillColor=none;top=0;left=0;bottom=0;right=0;align=left;spacingLeft=2;overflow=hidden;fontSize=11;" vertex="1" parent="huza8Dq0BffoJNn7cIbv-143">
          <mxGeometry width="36" height="22" as="geometry">
            <mxRectangle width="36" height="22" as="alternateBounds" />
          </mxGeometry>
        </mxCell>
        <mxCell id="huza8Dq0BffoJNn7cIbv-145" value="created_at" style="shape=partialRectangle;connectable=0;fillColor=none;top=0;left=0;bottom=0;right=0;align=left;spacingLeft=2;overflow=hidden;fontSize=11;" vertex="1" parent="huza8Dq0BffoJNn7cIbv-143">
          <mxGeometry x="36" width="60" height="22" as="geometry">
            <mxRectangle width="60" height="22" as="alternateBounds" />
          </mxGeometry>
        </mxCell>
        <mxCell id="huza8Dq0BffoJNn7cIbv-146" value="" style="shape=partialRectangle;connectable=0;fillColor=none;top=0;left=0;bottom=0;right=0;align=left;spacingLeft=2;overflow=hidden;fontSize=11;" vertex="1" parent="huza8Dq0BffoJNn7cIbv-143">
          <mxGeometry x="96" width="22" height="22" as="geometry">
            <mxRectangle width="22" height="22" as="alternateBounds" />
          </mxGeometry>
        </mxCell>
        <mxCell id="huza8Dq0BffoJNn7cIbv-147" value="Account creation date" style="shape=partialRectangle;connectable=0;fillColor=none;top=0;left=0;bottom=0;right=0;align=left;spacingLeft=2;overflow=hidden;fontSize=11;" vertex="1" parent="huza8Dq0BffoJNn7cIbv-143">
          <mxGeometry x="118" width="168" height="22" as="geometry">
            <mxRectangle width="168" height="22" as="alternateBounds" />
          </mxGeometry>
        </mxCell>
        <mxCell id="huza8Dq0BffoJNn7cIbv-148" style="shape=tableRow;horizontal=0;startSize=0;swimlaneHead=0;swimlaneBody=0;fillColor=none;collapsible=0;dropTarget=0;points=[[0,0.5],[1,0.5]];portConstraint=eastwest;top=0;left=0;right=0;bottom=0;" vertex="1" parent="huza8Dq0BffoJNn7cIbv-122">
          <mxGeometry y="135" width="286" height="22" as="geometry" />
        </mxCell>
        <mxCell id="huza8Dq0BffoJNn7cIbv-149" value="date" style="shape=partialRectangle;connectable=0;fillColor=none;top=0;left=0;bottom=0;right=0;align=left;spacingLeft=2;overflow=hidden;fontSize=11;" vertex="1" parent="huza8Dq0BffoJNn7cIbv-148">
          <mxGeometry width="36" height="22" as="geometry">
            <mxRectangle width="36" height="22" as="alternateBounds" />
          </mxGeometry>
        </mxCell>
        <mxCell id="huza8Dq0BffoJNn7cIbv-150" value="updated_at" style="shape=partialRectangle;connectable=0;fillColor=none;top=0;left=0;bottom=0;right=0;align=left;spacingLeft=2;overflow=hidden;fontSize=11;" vertex="1" parent="huza8Dq0BffoJNn7cIbv-148">
          <mxGeometry x="36" width="60" height="22" as="geometry">
            <mxRectangle width="60" height="22" as="alternateBounds" />
          </mxGeometry>
        </mxCell>
        <mxCell id="huza8Dq0BffoJNn7cIbv-151" value="" style="shape=partialRectangle;connectable=0;fillColor=none;top=0;left=0;bottom=0;right=0;align=left;spacingLeft=2;overflow=hidden;fontSize=11;" vertex="1" parent="huza8Dq0BffoJNn7cIbv-148">
          <mxGeometry x="96" width="22" height="22" as="geometry">
            <mxRectangle width="22" height="22" as="alternateBounds" />
          </mxGeometry>
        </mxCell>
        <mxCell id="huza8Dq0BffoJNn7cIbv-152" value="Account update date" style="shape=partialRectangle;connectable=0;fillColor=none;top=0;left=0;bottom=0;right=0;align=left;spacingLeft=2;overflow=hidden;fontSize=11;" vertex="1" parent="huza8Dq0BffoJNn7cIbv-148">
          <mxGeometry x="118" width="168" height="22" as="geometry">
            <mxRectangle width="168" height="22" as="alternateBounds" />
          </mxGeometry>
        </mxCell>
        <mxCell id="huza8Dq0BffoJNn7cIbv-153" value="TEAM" style="shape=table;startSize=25;container=1;collapsible=0;childLayout=tableLayout;fixedRows=1;rowLines=1;fontStyle=1;align=center;resizeLast=1;" vertex="1" parent="1">
          <mxGeometry x="509" y="1201" width="322" height="135" as="geometry" />
        </mxCell>
        <mxCell id="huza8Dq0BffoJNn7cIbv-154" style="shape=tableRow;horizontal=0;startSize=0;swimlaneHead=0;swimlaneBody=0;fillColor=none;collapsible=0;dropTarget=0;points=[[0,0.5],[1,0.5]];portConstraint=eastwest;top=0;left=0;right=0;bottom=0;" vertex="1" parent="huza8Dq0BffoJNn7cIbv-153">
          <mxGeometry y="25" width="322" height="22" as="geometry" />
        </mxCell>
        <mxCell id="huza8Dq0BffoJNn7cIbv-155" value="int" style="shape=partialRectangle;connectable=0;fillColor=none;top=0;left=0;bottom=0;right=0;align=left;spacingLeft=2;overflow=hidden;fontSize=11;" vertex="1" parent="huza8Dq0BffoJNn7cIbv-154">
          <mxGeometry width="36" height="22" as="geometry">
            <mxRectangle width="36" height="22" as="alternateBounds" />
          </mxGeometry>
        </mxCell>
        <mxCell id="huza8Dq0BffoJNn7cIbv-156" value="id" style="shape=partialRectangle;connectable=0;fillColor=none;top=0;left=0;bottom=0;right=0;align=left;spacingLeft=2;overflow=hidden;fontSize=11;" vertex="1" parent="huza8Dq0BffoJNn7cIbv-154">
          <mxGeometry x="36" width="66" height="22" as="geometry">
            <mxRectangle width="66" height="22" as="alternateBounds" />
          </mxGeometry>
        </mxCell>
        <mxCell id="huza8Dq0BffoJNn7cIbv-157" value="PK" style="shape=partialRectangle;connectable=0;fillColor=none;top=0;left=0;bottom=0;right=0;align=left;spacingLeft=2;overflow=hidden;fontSize=11;" vertex="1" parent="huza8Dq0BffoJNn7cIbv-154">
          <mxGeometry x="102" width="22" height="22" as="geometry">
            <mxRectangle width="22" height="22" as="alternateBounds" />
          </mxGeometry>
        </mxCell>
        <mxCell id="huza8Dq0BffoJNn7cIbv-158" value="Primary Key" style="shape=partialRectangle;connectable=0;fillColor=none;top=0;left=0;bottom=0;right=0;align=left;spacingLeft=2;overflow=hidden;fontSize=11;" vertex="1" parent="huza8Dq0BffoJNn7cIbv-154">
          <mxGeometry x="124" width="198" height="22" as="geometry">
            <mxRectangle width="198" height="22" as="alternateBounds" />
          </mxGeometry>
        </mxCell>
        <mxCell id="huza8Dq0BffoJNn7cIbv-159" style="shape=tableRow;horizontal=0;startSize=0;swimlaneHead=0;swimlaneBody=0;fillColor=none;collapsible=0;dropTarget=0;points=[[0,0.5],[1,0.5]];portConstraint=eastwest;top=0;left=0;right=0;bottom=0;" vertex="1" parent="huza8Dq0BffoJNn7cIbv-153">
          <mxGeometry y="47" width="322" height="22" as="geometry" />
        </mxCell>
        <mxCell id="huza8Dq0BffoJNn7cIbv-160" value="string" style="shape=partialRectangle;connectable=0;fillColor=none;top=0;left=0;bottom=0;right=0;align=left;spacingLeft=2;overflow=hidden;fontSize=11;" vertex="1" parent="huza8Dq0BffoJNn7cIbv-159">
          <mxGeometry width="36" height="22" as="geometry">
            <mxRectangle width="36" height="22" as="alternateBounds" />
          </mxGeometry>
        </mxCell>
        <mxCell id="huza8Dq0BffoJNn7cIbv-161" value="name" style="shape=partialRectangle;connectable=0;fillColor=none;top=0;left=0;bottom=0;right=0;align=left;spacingLeft=2;overflow=hidden;fontSize=11;" vertex="1" parent="huza8Dq0BffoJNn7cIbv-159">
          <mxGeometry x="36" width="66" height="22" as="geometry">
            <mxRectangle width="66" height="22" as="alternateBounds" />
          </mxGeometry>
        </mxCell>
        <mxCell id="huza8Dq0BffoJNn7cIbv-162" value="" style="shape=partialRectangle;connectable=0;fillColor=none;top=0;left=0;bottom=0;right=0;align=left;spacingLeft=2;overflow=hidden;fontSize=11;" vertex="1" parent="huza8Dq0BffoJNn7cIbv-159">
          <mxGeometry x="102" width="22" height="22" as="geometry">
            <mxRectangle width="22" height="22" as="alternateBounds" />
          </mxGeometry>
        </mxCell>
        <mxCell id="huza8Dq0BffoJNn7cIbv-163" value="Unique name for the team" style="shape=partialRectangle;connectable=0;fillColor=none;top=0;left=0;bottom=0;right=0;align=left;spacingLeft=2;overflow=hidden;fontSize=11;" vertex="1" parent="huza8Dq0BffoJNn7cIbv-159">
          <mxGeometry x="124" width="198" height="22" as="geometry">
            <mxRectangle width="198" height="22" as="alternateBounds" />
          </mxGeometry>
        </mxCell>
        <mxCell id="huza8Dq0BffoJNn7cIbv-164" style="shape=tableRow;horizontal=0;startSize=0;swimlaneHead=0;swimlaneBody=0;fillColor=none;collapsible=0;dropTarget=0;points=[[0,0.5],[1,0.5]];portConstraint=eastwest;top=0;left=0;right=0;bottom=0;" vertex="1" parent="huza8Dq0BffoJNn7cIbv-153">
          <mxGeometry y="69" width="322" height="22" as="geometry" />
        </mxCell>
        <mxCell id="huza8Dq0BffoJNn7cIbv-165" value="string" style="shape=partialRectangle;connectable=0;fillColor=none;top=0;left=0;bottom=0;right=0;align=left;spacingLeft=2;overflow=hidden;fontSize=11;" vertex="1" parent="huza8Dq0BffoJNn7cIbv-164">
          <mxGeometry width="36" height="22" as="geometry">
            <mxRectangle width="36" height="22" as="alternateBounds" />
          </mxGeometry>
        </mxCell>
        <mxCell id="huza8Dq0BffoJNn7cIbv-166" value="description" style="shape=partialRectangle;connectable=0;fillColor=none;top=0;left=0;bottom=0;right=0;align=left;spacingLeft=2;overflow=hidden;fontSize=11;" vertex="1" parent="huza8Dq0BffoJNn7cIbv-164">
          <mxGeometry x="36" width="66" height="22" as="geometry">
            <mxRectangle width="66" height="22" as="alternateBounds" />
          </mxGeometry>
        </mxCell>
        <mxCell id="huza8Dq0BffoJNn7cIbv-167" value="" style="shape=partialRectangle;connectable=0;fillColor=none;top=0;left=0;bottom=0;right=0;align=left;spacingLeft=2;overflow=hidden;fontSize=11;" vertex="1" parent="huza8Dq0BffoJNn7cIbv-164">
          <mxGeometry x="102" width="22" height="22" as="geometry">
            <mxRectangle width="22" height="22" as="alternateBounds" />
          </mxGeometry>
        </mxCell>
        <mxCell id="huza8Dq0BffoJNn7cIbv-168" value="Brief description of the team" style="shape=partialRectangle;connectable=0;fillColor=none;top=0;left=0;bottom=0;right=0;align=left;spacingLeft=2;overflow=hidden;fontSize=11;" vertex="1" parent="huza8Dq0BffoJNn7cIbv-164">
          <mxGeometry x="124" width="198" height="22" as="geometry">
            <mxRectangle width="198" height="22" as="alternateBounds" />
          </mxGeometry>
        </mxCell>
        <mxCell id="huza8Dq0BffoJNn7cIbv-169" style="shape=tableRow;horizontal=0;startSize=0;swimlaneHead=0;swimlaneBody=0;fillColor=none;collapsible=0;dropTarget=0;points=[[0,0.5],[1,0.5]];portConstraint=eastwest;top=0;left=0;right=0;bottom=0;" vertex="1" parent="huza8Dq0BffoJNn7cIbv-153">
          <mxGeometry y="91" width="322" height="22" as="geometry" />
        </mxCell>
        <mxCell id="huza8Dq0BffoJNn7cIbv-170" value="date" style="shape=partialRectangle;connectable=0;fillColor=none;top=0;left=0;bottom=0;right=0;align=left;spacingLeft=2;overflow=hidden;fontSize=11;" vertex="1" parent="huza8Dq0BffoJNn7cIbv-169">
          <mxGeometry width="36" height="22" as="geometry">
            <mxRectangle width="36" height="22" as="alternateBounds" />
          </mxGeometry>
        </mxCell>
        <mxCell id="huza8Dq0BffoJNn7cIbv-171" value="created_at" style="shape=partialRectangle;connectable=0;fillColor=none;top=0;left=0;bottom=0;right=0;align=left;spacingLeft=2;overflow=hidden;fontSize=11;" vertex="1" parent="huza8Dq0BffoJNn7cIbv-169">
          <mxGeometry x="36" width="66" height="22" as="geometry">
            <mxRectangle width="66" height="22" as="alternateBounds" />
          </mxGeometry>
        </mxCell>
        <mxCell id="huza8Dq0BffoJNn7cIbv-172" value="" style="shape=partialRectangle;connectable=0;fillColor=none;top=0;left=0;bottom=0;right=0;align=left;spacingLeft=2;overflow=hidden;fontSize=11;" vertex="1" parent="huza8Dq0BffoJNn7cIbv-169">
          <mxGeometry x="102" width="22" height="22" as="geometry">
            <mxRectangle width="22" height="22" as="alternateBounds" />
          </mxGeometry>
        </mxCell>
        <mxCell id="huza8Dq0BffoJNn7cIbv-173" value="Date team was created" style="shape=partialRectangle;connectable=0;fillColor=none;top=0;left=0;bottom=0;right=0;align=left;spacingLeft=2;overflow=hidden;fontSize=11;" vertex="1" parent="huza8Dq0BffoJNn7cIbv-169">
          <mxGeometry x="124" width="198" height="22" as="geometry">
            <mxRectangle width="198" height="22" as="alternateBounds" />
          </mxGeometry>
        </mxCell>
        <mxCell id="huza8Dq0BffoJNn7cIbv-174" style="shape=tableRow;horizontal=0;startSize=0;swimlaneHead=0;swimlaneBody=0;fillColor=none;collapsible=0;dropTarget=0;points=[[0,0.5],[1,0.5]];portConstraint=eastwest;top=0;left=0;right=0;bottom=0;" vertex="1" parent="huza8Dq0BffoJNn7cIbv-153">
          <mxGeometry y="113" width="322" height="22" as="geometry" />
        </mxCell>
        <mxCell id="huza8Dq0BffoJNn7cIbv-175" value="date" style="shape=partialRectangle;connectable=0;fillColor=none;top=0;left=0;bottom=0;right=0;align=left;spacingLeft=2;overflow=hidden;fontSize=11;" vertex="1" parent="huza8Dq0BffoJNn7cIbv-174">
          <mxGeometry width="36" height="22" as="geometry">
            <mxRectangle width="36" height="22" as="alternateBounds" />
          </mxGeometry>
        </mxCell>
        <mxCell id="huza8Dq0BffoJNn7cIbv-176" value="updated_at" style="shape=partialRectangle;connectable=0;fillColor=none;top=0;left=0;bottom=0;right=0;align=left;spacingLeft=2;overflow=hidden;fontSize=11;" vertex="1" parent="huza8Dq0BffoJNn7cIbv-174">
          <mxGeometry x="36" width="66" height="22" as="geometry">
            <mxRectangle width="66" height="22" as="alternateBounds" />
          </mxGeometry>
        </mxCell>
        <mxCell id="huza8Dq0BffoJNn7cIbv-177" value="" style="shape=partialRectangle;connectable=0;fillColor=none;top=0;left=0;bottom=0;right=0;align=left;spacingLeft=2;overflow=hidden;fontSize=11;" vertex="1" parent="huza8Dq0BffoJNn7cIbv-174">
          <mxGeometry x="102" width="22" height="22" as="geometry">
            <mxRectangle width="22" height="22" as="alternateBounds" />
          </mxGeometry>
        </mxCell>
        <mxCell id="huza8Dq0BffoJNn7cIbv-178" value="Date team information was updated" style="shape=partialRectangle;connectable=0;fillColor=none;top=0;left=0;bottom=0;right=0;align=left;spacingLeft=2;overflow=hidden;fontSize=11;" vertex="1" parent="huza8Dq0BffoJNn7cIbv-174">
          <mxGeometry x="124" width="198" height="22" as="geometry">
            <mxRectangle width="198" height="22" as="alternateBounds" />
          </mxGeometry>
        </mxCell>
        <mxCell id="huza8Dq0BffoJNn7cIbv-179" value="USER_TEAM_TABLE" style="shape=table;startSize=25;container=1;collapsible=0;childLayout=tableLayout;fixedRows=1;rowLines=1;fontStyle=1;align=center;resizeLast=1;" vertex="1" parent="1">
          <mxGeometry x="319" y="1446" width="340" height="135" as="geometry" />
        </mxCell>
        <mxCell id="huza8Dq0BffoJNn7cIbv-180" style="shape=tableRow;horizontal=0;startSize=0;swimlaneHead=0;swimlaneBody=0;fillColor=none;collapsible=0;dropTarget=0;points=[[0,0.5],[1,0.5]];portConstraint=eastwest;top=0;left=0;right=0;bottom=0;" vertex="1" parent="huza8Dq0BffoJNn7cIbv-179">
          <mxGeometry y="25" width="340" height="22" as="geometry" />
        </mxCell>
        <mxCell id="huza8Dq0BffoJNn7cIbv-181" value="int" style="shape=partialRectangle;connectable=0;fillColor=none;top=0;left=0;bottom=0;right=0;align=left;spacingLeft=2;overflow=hidden;fontSize=11;" vertex="1" parent="huza8Dq0BffoJNn7cIbv-180">
          <mxGeometry width="36" height="22" as="geometry">
            <mxRectangle width="36" height="22" as="alternateBounds" />
          </mxGeometry>
        </mxCell>
        <mxCell id="huza8Dq0BffoJNn7cIbv-182" value="user_id" style="shape=partialRectangle;connectable=0;fillColor=none;top=0;left=0;bottom=0;right=0;align=left;spacingLeft=2;overflow=hidden;fontSize=11;" vertex="1" parent="huza8Dq0BffoJNn7cIbv-180">
          <mxGeometry x="36" width="54" height="22" as="geometry">
            <mxRectangle width="54" height="22" as="alternateBounds" />
          </mxGeometry>
        </mxCell>
        <mxCell id="huza8Dq0BffoJNn7cIbv-183" value="FK" style="shape=partialRectangle;connectable=0;fillColor=none;top=0;left=0;bottom=0;right=0;align=left;spacingLeft=2;overflow=hidden;fontSize=11;" vertex="1" parent="huza8Dq0BffoJNn7cIbv-180">
          <mxGeometry x="90" width="22" height="22" as="geometry">
            <mxRectangle width="22" height="22" as="alternateBounds" />
          </mxGeometry>
        </mxCell>
        <mxCell id="huza8Dq0BffoJNn7cIbv-184" value="Foreign Key referencing USER" style="shape=partialRectangle;connectable=0;fillColor=none;top=0;left=0;bottom=0;right=0;align=left;spacingLeft=2;overflow=hidden;fontSize=11;" vertex="1" parent="huza8Dq0BffoJNn7cIbv-180">
          <mxGeometry x="112" width="228" height="22" as="geometry">
            <mxRectangle width="228" height="22" as="alternateBounds" />
          </mxGeometry>
        </mxCell>
        <mxCell id="huza8Dq0BffoJNn7cIbv-185" style="shape=tableRow;horizontal=0;startSize=0;swimlaneHead=0;swimlaneBody=0;fillColor=none;collapsible=0;dropTarget=0;points=[[0,0.5],[1,0.5]];portConstraint=eastwest;top=0;left=0;right=0;bottom=0;" vertex="1" parent="huza8Dq0BffoJNn7cIbv-179">
          <mxGeometry y="47" width="340" height="22" as="geometry" />
        </mxCell>
        <mxCell id="huza8Dq0BffoJNn7cIbv-186" value="int" style="shape=partialRectangle;connectable=0;fillColor=none;top=0;left=0;bottom=0;right=0;align=left;spacingLeft=2;overflow=hidden;fontSize=11;" vertex="1" parent="huza8Dq0BffoJNn7cIbv-185">
          <mxGeometry width="36" height="22" as="geometry">
            <mxRectangle width="36" height="22" as="alternateBounds" />
          </mxGeometry>
        </mxCell>
        <mxCell id="huza8Dq0BffoJNn7cIbv-187" value="team_id" style="shape=partialRectangle;connectable=0;fillColor=none;top=0;left=0;bottom=0;right=0;align=left;spacingLeft=2;overflow=hidden;fontSize=11;" vertex="1" parent="huza8Dq0BffoJNn7cIbv-185">
          <mxGeometry x="36" width="54" height="22" as="geometry">
            <mxRectangle width="54" height="22" as="alternateBounds" />
          </mxGeometry>
        </mxCell>
        <mxCell id="huza8Dq0BffoJNn7cIbv-188" value="FK" style="shape=partialRectangle;connectable=0;fillColor=none;top=0;left=0;bottom=0;right=0;align=left;spacingLeft=2;overflow=hidden;fontSize=11;" vertex="1" parent="huza8Dq0BffoJNn7cIbv-185">
          <mxGeometry x="90" width="22" height="22" as="geometry">
            <mxRectangle width="22" height="22" as="alternateBounds" />
          </mxGeometry>
        </mxCell>
        <mxCell id="huza8Dq0BffoJNn7cIbv-189" value="Foreign Key referencing TEAM" style="shape=partialRectangle;connectable=0;fillColor=none;top=0;left=0;bottom=0;right=0;align=left;spacingLeft=2;overflow=hidden;fontSize=11;" vertex="1" parent="huza8Dq0BffoJNn7cIbv-185">
          <mxGeometry x="112" width="228" height="22" as="geometry">
            <mxRectangle width="228" height="22" as="alternateBounds" />
          </mxGeometry>
        </mxCell>
        <mxCell id="huza8Dq0BffoJNn7cIbv-190" style="shape=tableRow;horizontal=0;startSize=0;swimlaneHead=0;swimlaneBody=0;fillColor=none;collapsible=0;dropTarget=0;points=[[0,0.5],[1,0.5]];portConstraint=eastwest;top=0;left=0;right=0;bottom=0;" vertex="1" parent="huza8Dq0BffoJNn7cIbv-179">
          <mxGeometry y="69" width="340" height="22" as="geometry" />
        </mxCell>
        <mxCell id="huza8Dq0BffoJNn7cIbv-191" value="date" style="shape=partialRectangle;connectable=0;fillColor=none;top=0;left=0;bottom=0;right=0;align=left;spacingLeft=2;overflow=hidden;fontSize=11;" vertex="1" parent="huza8Dq0BffoJNn7cIbv-190">
          <mxGeometry width="36" height="22" as="geometry">
            <mxRectangle width="36" height="22" as="alternateBounds" />
          </mxGeometry>
        </mxCell>
        <mxCell id="huza8Dq0BffoJNn7cIbv-192" value="joined_at" style="shape=partialRectangle;connectable=0;fillColor=none;top=0;left=0;bottom=0;right=0;align=left;spacingLeft=2;overflow=hidden;fontSize=11;" vertex="1" parent="huza8Dq0BffoJNn7cIbv-190">
          <mxGeometry x="36" width="54" height="22" as="geometry">
            <mxRectangle width="54" height="22" as="alternateBounds" />
          </mxGeometry>
        </mxCell>
        <mxCell id="huza8Dq0BffoJNn7cIbv-193" value="" style="shape=partialRectangle;connectable=0;fillColor=none;top=0;left=0;bottom=0;right=0;align=left;spacingLeft=2;overflow=hidden;fontSize=11;" vertex="1" parent="huza8Dq0BffoJNn7cIbv-190">
          <mxGeometry x="90" width="22" height="22" as="geometry">
            <mxRectangle width="22" height="22" as="alternateBounds" />
          </mxGeometry>
        </mxCell>
        <mxCell id="huza8Dq0BffoJNn7cIbv-194" value="Date the user joined the team" style="shape=partialRectangle;connectable=0;fillColor=none;top=0;left=0;bottom=0;right=0;align=left;spacingLeft=2;overflow=hidden;fontSize=11;" vertex="1" parent="huza8Dq0BffoJNn7cIbv-190">
          <mxGeometry x="112" width="228" height="22" as="geometry">
            <mxRectangle width="228" height="22" as="alternateBounds" />
          </mxGeometry>
        </mxCell>
        <mxCell id="huza8Dq0BffoJNn7cIbv-195" style="shape=tableRow;horizontal=0;startSize=0;swimlaneHead=0;swimlaneBody=0;fillColor=none;collapsible=0;dropTarget=0;points=[[0,0.5],[1,0.5]];portConstraint=eastwest;top=0;left=0;right=0;bottom=0;" vertex="1" parent="huza8Dq0BffoJNn7cIbv-179">
          <mxGeometry y="91" width="340" height="22" as="geometry" />
        </mxCell>
        <mxCell id="huza8Dq0BffoJNn7cIbv-196" value="date" style="shape=partialRectangle;connectable=0;fillColor=none;top=0;left=0;bottom=0;right=0;align=left;spacingLeft=2;overflow=hidden;fontSize=11;" vertex="1" parent="huza8Dq0BffoJNn7cIbv-195">
          <mxGeometry width="36" height="22" as="geometry">
            <mxRectangle width="36" height="22" as="alternateBounds" />
          </mxGeometry>
        </mxCell>
        <mxCell id="huza8Dq0BffoJNn7cIbv-197" value="left_at" style="shape=partialRectangle;connectable=0;fillColor=none;top=0;left=0;bottom=0;right=0;align=left;spacingLeft=2;overflow=hidden;fontSize=11;" vertex="1" parent="huza8Dq0BffoJNn7cIbv-195">
          <mxGeometry x="36" width="54" height="22" as="geometry">
            <mxRectangle width="54" height="22" as="alternateBounds" />
          </mxGeometry>
        </mxCell>
        <mxCell id="huza8Dq0BffoJNn7cIbv-198" value="" style="shape=partialRectangle;connectable=0;fillColor=none;top=0;left=0;bottom=0;right=0;align=left;spacingLeft=2;overflow=hidden;fontSize=11;" vertex="1" parent="huza8Dq0BffoJNn7cIbv-195">
          <mxGeometry x="90" width="22" height="22" as="geometry">
            <mxRectangle width="22" height="22" as="alternateBounds" />
          </mxGeometry>
        </mxCell>
        <mxCell id="huza8Dq0BffoJNn7cIbv-199" value="Date the user left the team (nullable)" style="shape=partialRectangle;connectable=0;fillColor=none;top=0;left=0;bottom=0;right=0;align=left;spacingLeft=2;overflow=hidden;fontSize=11;" vertex="1" parent="huza8Dq0BffoJNn7cIbv-195">
          <mxGeometry x="112" width="228" height="22" as="geometry">
            <mxRectangle width="228" height="22" as="alternateBounds" />
          </mxGeometry>
        </mxCell>
        <mxCell id="huza8Dq0BffoJNn7cIbv-200" style="shape=tableRow;horizontal=0;startSize=0;swimlaneHead=0;swimlaneBody=0;fillColor=none;collapsible=0;dropTarget=0;points=[[0,0.5],[1,0.5]];portConstraint=eastwest;top=0;left=0;right=0;bottom=0;" vertex="1" parent="huza8Dq0BffoJNn7cIbv-179">
          <mxGeometry y="113" width="340" height="22" as="geometry" />
        </mxCell>
        <mxCell id="huza8Dq0BffoJNn7cIbv-201" value="string" style="shape=partialRectangle;connectable=0;fillColor=none;top=0;left=0;bottom=0;right=0;align=left;spacingLeft=2;overflow=hidden;fontSize=11;" vertex="1" parent="huza8Dq0BffoJNn7cIbv-200">
          <mxGeometry width="36" height="22" as="geometry">
            <mxRectangle width="36" height="22" as="alternateBounds" />
          </mxGeometry>
        </mxCell>
        <mxCell id="huza8Dq0BffoJNn7cIbv-202" value="role" style="shape=partialRectangle;connectable=0;fillColor=none;top=0;left=0;bottom=0;right=0;align=left;spacingLeft=2;overflow=hidden;fontSize=11;" vertex="1" parent="huza8Dq0BffoJNn7cIbv-200">
          <mxGeometry x="36" width="54" height="22" as="geometry">
            <mxRectangle width="54" height="22" as="alternateBounds" />
          </mxGeometry>
        </mxCell>
        <mxCell id="huza8Dq0BffoJNn7cIbv-203" value="" style="shape=partialRectangle;connectable=0;fillColor=none;top=0;left=0;bottom=0;right=0;align=left;spacingLeft=2;overflow=hidden;fontSize=11;" vertex="1" parent="huza8Dq0BffoJNn7cIbv-200">
          <mxGeometry x="90" width="22" height="22" as="geometry">
            <mxRectangle width="22" height="22" as="alternateBounds" />
          </mxGeometry>
        </mxCell>
        <mxCell id="huza8Dq0BffoJNn7cIbv-204" value="Role of the user in the team" style="shape=partialRectangle;connectable=0;fillColor=none;top=0;left=0;bottom=0;right=0;align=left;spacingLeft=2;overflow=hidden;fontSize=11;" vertex="1" parent="huza8Dq0BffoJNn7cIbv-200">
          <mxGeometry x="112" width="228" height="22" as="geometry">
            <mxRectangle width="228" height="22" as="alternateBounds" />
          </mxGeometry>
        </mxCell>
        <mxCell id="huza8Dq0BffoJNn7cIbv-205" value="has" style="curved=1;startArrow=ERmandOne;startSize=10;;endArrow=ERzeroToMany;endSize=10;;exitX=0.46;exitY=1;entryX=0.11;entryY=0;rounded=0;" edge="1" parent="1" source="huza8Dq0BffoJNn7cIbv-122" target="huza8Dq0BffoJNn7cIbv-179">
          <mxGeometry relative="1" as="geometry">
            <Array as="points">
              <mxPoint x="276" y="1396" />
            </Array>
          </mxGeometry>
        </mxCell>
        <mxCell id="huza8Dq0BffoJNn7cIbv-206" value="includes" style="curved=1;startArrow=ERmandOne;startSize=10;;endArrow=ERzeroToMany;endSize=10;;exitX=0.46;exitY=1;entryX=0.75;entryY=0;rounded=0;" edge="1" parent="1" source="huza8Dq0BffoJNn7cIbv-153" target="huza8Dq0BffoJNn7cIbv-179">
          <mxGeometry relative="1" as="geometry">
            <Array as="points">
              <mxPoint x="656" y="1396" />
            </Array>
          </mxGeometry>
        </mxCell>
      </root>
    </mxGraphModel>
  </diagram>
</mxfile>
